<?xml version="1.0" standalone="no"?>
<!DOCTYPE svg PUBLIC "-//W3C//DTD SVG 1.1//EN" "http://www.w3.org/Graphics/SVG/1.1/DTD/svg11.dtd" >
<svg xmlns="http://www.w3.org/2000/svg">
<metadata></metadata>
<defs>
<font id="conduititcstdblackitalic" horiz-adv-x="1118" >
<font-face units-per-em="2048" ascent="1638" descent="-410" />
<missing-glyph horiz-adv-x="364" />
<glyph unicode="&#xfb01;" horiz-adv-x="1142" d="M-330 -436l107 237q8 16 33 13q52 -9 96 -9q50 0 82.5 27t40.5 72l116 661q2 11 -3.5 16t-22.5 5h-56q-17 0 -14 20l43 240q3 20 23 20h57q26 0 29 21q45 190 186.5 307t339.5 117h41q23 0 20 -23l-43 -244q-3 -20 -26 -20h-51q-50 0 -81 -26t-40 -72l-8 -39 q-2 -11 3 -16t19 -5h133q20 0 17 -20l-43 -240q-3 -20 -25 -20h-133q-24 0 -27 -21l-100 -567q-39 -224 -185 -351.5t-350 -127.5q-93 0 -163 16q-22 5 -15 29zM641 20l164 928q3 19 22 19h299q6 0 12 -5t5 -14l-164 -928q-3 -20 -23 -20h-299q-19 0 -16 20zM840 1157 q12 68 70.5 115t127.5 47q71 0 113.5 -47t30.5 -115q-12 -66 -71 -112t-130 -46q-72 0 -112.5 44.5t-28.5 113.5z" />
<glyph unicode="&#xfb02;" horiz-adv-x="1142" d="M-330 -436l107 237q8 16 33 13q52 -9 96 -9q50 0 82.5 27t40.5 72l116 661q2 11 -3.5 16t-22.5 5h-56q-17 0 -14 20l43 240q3 20 23 20h57q26 0 29 21q45 187 183.5 296t338.5 109h461q18 0 16 -20l-221 -1252q-3 -20 -23 -20h-297q-21 0 -18 20l170 969q3 17 -12 17 h-133q-50 0 -82 -27t-41 -72l-4 -20q-2 -11 3 -16t19 -5h113q19 0 16 -20l-43 -240q-3 -20 -24 -20h-113q-24 0 -27 -21l-100 -567q-39 -224 -185 -351.5t-350 -127.5q-93 0 -163 16q-22 5 -15 29z" />
<glyph unicode="&#xfb03;" horiz-adv-x="1744" d="M-330 -436l107 237q8 16 33 13q52 -9 96 -9q50 0 82.5 27t40.5 72l116 661q2 11 -3.5 16t-22.5 5h-56q-17 0 -14 20l43 240q3 20 23 20h57q26 0 29 21q45 190 186.5 307t339.5 117q176 0 285 -76q16 -11 35 0q124 76 282 76h41q24 0 21 -23l-43 -244q-3 -20 -27 -20h-51 q-50 0 -81 -26t-40 -72l-8 -39q-2 -11 3 -16t19 -5h133q20 0 17 -20l-43 -240q-3 -20 -25 -20h-133q-24 0 -27 -21l-84 -475q-39 -224 -184.5 -351.5t-349.5 -127.5q-94 0 -164 16q-21 5 -14 29l106 238q8 15 33 12q46 -8 96 -8t82.5 26.5t40.5 71.5l101 569q2 11 -4 16 t-23 5h-211q-24 0 -27 -21l-100 -567q-39 -224 -185 -351.5t-350 -127.5q-93 0 -163 16q-22 5 -15 29zM539 887q-2 -11 3 -16t19 -5h213q26 0 29 21q11 48 22 74q8 24 -10 34q-59 29 -147 29q-50 0 -81 -26t-40 -72zM1243 20l164 928q3 19 23 19h299q6 0 11.5 -5t4.5 -14 l-164 -928q-3 -20 -22 -20h-299q-20 0 -17 20zM1442 1157q12 68 70.5 115t127.5 47q71 0 113.5 -47t30.5 -115q-12 -66 -71 -112t-130 -46q-72 0 -112.5 44.5t-28.5 113.5z" />
<glyph unicode="&#xfb04;" horiz-adv-x="1744" d="M-330 -436l107 237q8 16 33 13q52 -9 96 -9q50 0 82.5 27t40.5 72l116 661q2 11 -3.5 16t-22.5 5h-56q-17 0 -14 20l43 240q3 20 23 20h57q26 0 29 21q45 190 186.5 307t339.5 117q185 0 299 -84q13 -11 35 0q109 65 264 65h461q18 0 16 -20l-221 -1252q-3 -20 -22 -20 h-297q-22 0 -19 20l170 969q3 17 -12 17h-133q-50 0 -82 -27t-41 -72l-4 -20q-2 -11 3 -16t19 -5h113q19 0 16 -20l-43 -240q-3 -20 -24 -20h-113q-24 0 -27 -21l-84 -475q-39 -224 -184.5 -351.5t-349.5 -127.5q-94 0 -164 16q-21 5 -14 29l106 238q8 15 33 12q46 -8 96 -8 t82.5 26.5t40.5 71.5l101 569q2 11 -4 16t-23 5h-211q-24 0 -27 -21l-100 -567q-39 -224 -185 -351.5t-350 -127.5q-93 0 -163 16q-22 5 -15 29zM539 887q-2 -11 3 -16t19 -5h213q26 0 29 21q11 48 22 74q8 24 -10 34q-59 29 -147 29q-50 0 -81 -26t-40 -72z" />
<glyph horiz-adv-x="2048" />
<glyph horiz-adv-x="2048" />
<glyph unicode="&#xd;" horiz-adv-x="2048" />
<glyph unicode=" "  horiz-adv-x="364" />
<glyph unicode="&#x09;" horiz-adv-x="364" />
<glyph unicode="&#xa0;" horiz-adv-x="364" />
<glyph unicode="!" horiz-adv-x="585" d="M59 160q12 70 76 120t139 50q71 0 118.5 -52t37.5 -118q-12 -67 -78.5 -119.5t-136.5 -52.5q-75 0 -121.5 51.5t-34.5 120.5zM162 403l10 322l98 547q2 20 23 20h301q18 0 16 -20l-98 -549l-98 -320q-3 -16 -23 -16h-215q-14 0 -14 16z" />
<glyph unicode="&#x22;" horiz-adv-x="753" d="M176 838l10 419q0 11 7 18t18 7h268q22 0 15 -25l-103 -419q-3 -19 -24 -19h-172q-19 0 -19 19zM498 838l41 419q4 25 24 25h268q22 0 15 -25l-133 -419q-6 -19 -25 -19h-172q-18 0 -18 19z" />
<glyph unicode="#" horiz-adv-x="1222" d="M12 346l58 201q5 18 22 18h144q24 0 32 25l35 110q9 27 -14 27h-131q-11 0 -16.5 6t-2.5 15l56 200q5 19 22 19h145q25 0 31 20l92 291q3 14 21 14h213q8 0 12.5 -5.5t1.5 -12.5l-90 -287q-6 -20 14 -20h115q21 0 27 18l92 293q3 14 18 14h211q22 0 15 -22l-88 -283 q-7 -20 16 -20h139q9 0 14 -5.5t3 -13.5l-58 -203q-5 -18 -26 -18h-146q-27 0 -33 -22l-36 -117q-7 -23 14 -23h143q9 0 14 -5t3 -13l-60 -203q-5 -18 -26 -18h-146q-25 0 -31 -21l-92 -291q-3 -14 -18 -14h-209q-8 0 -12.5 6.5t-1.5 16.5l88 280q4 11 -0.5 17t-14.5 6h-116 q-21 0 -29 -21l-92 -291q-4 -14 -19 -14h-209q-9 0 -14 6.5t-2 16.5l88 280q6 23 -14 23h-133q-11 0 -16.5 5.5t-2.5 14.5zM516 590q-6 -25 19 -25h108q25 0 33 27l35 108q4 12 -1 19.5t-16 7.5h-108q-26 0 -35 -25z" />
<glyph unicode="$" d="M27 203q-10 31 12 43l237 141q12 8 24.5 7t16.5 -13q28 -80 91 -100q24 -9 30 20l33 186q3 26 -16 29q-200 43 -277 139q-81 97 -53 258q30 178 153 282.5t316 121.5q25 3 27 20l8 41q3 21 20 21h150q17 0 14 -21l-8 -39q-3 -19 18 -22q170 -15 267 -119q41 -48 65 -108 q10 -31 -12 -43l-238 -142q-12 -8 -24.5 -7t-16.5 13q-29 84 -92 101q-24 7 -27 -19l-32 -184q-6 -22 16 -25q171 -32 260 -129q95 -109 64 -278q-31 -179 -152 -284.5t-313 -117.5q-13 -2 -18.5 -6t-8.5 -16l-8 -41q-3 -21 -18 -21h-150q-19 0 -16 21l8 41q3 19 -19 22 q-148 11 -245 99q-56 53 -86 129zM459 913q-9 -47 51 -75q9 -5 16.5 -0.5t8.5 14.5l24 137q3 15 -1.5 20.5t-16.5 2.5q-70 -22 -82 -99zM623 299q-1 -12 4 -15.5t14 -0.5q31 11 52.5 36t25.5 58q12 51 -47 80q-9 5 -16.5 1t-8.5 -16z" />
<glyph unicode="%" horiz-adv-x="1329" d="M135 891l31 178q17 98 95.5 160.5t184.5 62.5q114 0 172 -58t41 -155l-32 -188q-17 -97 -96 -155t-193 -58q-109 0 -164.5 58t-38.5 155zM177.5 7q-3.5 7 2.5 16l821 1257q9 12 23 12h178q22 0 12 -20l-825 -1256q-8 -16 -31 -16h-168q-9 0 -12.5 7zM328 891 q-3 -19 9.5 -31t35.5 -12t40.5 12t20.5 31l33 188q3 19 -9.5 31t-35.5 12t-41 -12t-21 -31zM733 213l33 178q19 98 97 160.5t184 62.5q113 0 172.5 -58.5t40.5 -154.5l-35 -188q-19 -97 -96.5 -155t-190.5 -58q-109 0 -166.5 58.5t-38.5 154.5zM926 213q-3 -19 10.5 -31 t36.5 -12t39.5 12t19.5 31l35 188q3 19 -10.5 31t-36.5 12t-39.5 -12t-19.5 -31z" />
<glyph unicode="&#x26;" horiz-adv-x="1359" d="M63 379q25 147 127 246q18 18 7 37q-66 99 -39 256q30 171 178 286t330 115q200 0 297 -102q104 -107 69 -299q-29 -165 -215 -273q-26 -13 -8 -27q6 -5 17.5 -15t17.5 -15q13 -13 28 2q91 101 194.5 160t240.5 59h61q21 0 18 -27l-47 -272q-3 -27 -26 -27h-64 q-73 0 -162 -92q-17 -17 -2 -29q88 -55 189 -55q31 0 24 -33l-53 -292q-2 -12 -7.5 -17.5t-20.5 -5.5q-240 0 -377 127q-18 18 -37 2q-160 -129 -338 -129q-259 0 -356 141q-76 108 -46 279zM414 383q-8 -44 14.5 -69t69.5 -25q61 0 114 35q22 14 6 30q-68 65 -135 99 q-14 7 -21 5.5t-18 -12.5q-24 -27 -30 -63zM508 920q-9 -68 37 -117q15 -15 43 -6q58 22 86.5 51.5t36.5 75.5q8 39 -15.5 65.5t-68.5 26.5q-44 0 -77.5 -27.5t-41.5 -68.5z" />
<glyph unicode="'" horiz-adv-x="432" d="M176 838l10 419q0 11 7 18t18 7h299q21 0 14 -25l-133 -419q-6 -19 -24 -19h-172q-19 0 -19 19z" />
<glyph unicode="(" horiz-adv-x="878" d="M145 82l174 983q31 178 176 293t386 115q32 0 28 -29l-45 -254q-6 -29 -37 -29q-73 0 -119 -35t-57 -94l-162 -917q-11 -58 23.5 -93.5t108.5 -35.5q32 0 26 -29l-45 -254q-4 -29 -39 -29q-252 0 -358 129q-89 108 -60 279z" />
<glyph unicode=")" horiz-adv-x="878" d="M6 -297l45 254q6 29 39 29q73 0 119 35t57 94l162 917q11 58 -23.5 93.5t-107.5 35.5q-35 0 -29 29l45 254q2 12 13 20.5t28 8.5q218 0 332 -103q119 -107 86 -305l-174 -983q-31 -178 -175.5 -293t-385.5 -115q-17 0 -25 8t-6 21z" />
<glyph unicode="*" horiz-adv-x="868" d="M90 928q-4 9 0.5 17.5t13.5 10.5l185 41q17 3 19 17t-13 18l-164 43q-12 3 -13 11.5t7 17.5l166 211q6 8 15.5 9t15.5 -5l108 -121q10 -12 23.5 -5.5t11.5 21.5l-19 150q0 10 8 18.5t17 8.5h252q25 0 14 -25l-69 -154q-6 -15 5 -20t23 4l162 125q7 6 14.5 4.5t10.5 -10.5 l88 -207q4 -9 0 -17.5t-15 -11.5l-182 -47q-15 -4 -17.5 -18t11.5 -17l172 -39q21 -7 4 -28l-166 -205q-13 -19 -26 -6l-121 112q-12 10 -23.5 3.5t-9.5 -21.5l12 -160q3 -20 -20 -20h-258q-22 0 -13 20l64 154q8 19 0 24.5t-25 -6.5l-149 -112q-18 -14 -27 4z" />
<glyph unicode="+" d="M55 406l37 206q3 21 21 21h315q26 0 29 20l51 285q2 20 24 20h224q16 0 14 -20l-51 -285q-2 -9 3.5 -14.5t18.5 -5.5h320q21 0 18 -21l-37 -206q-3 -19 -24 -19h-320q-24 0 -30 -22l-50 -281q-3 -18 -20 -18h-223q-10 0 -15 4t-4 14l50 281q3 10 -3.5 16t-17.5 6h-315 q-18 0 -15 19z" />
<glyph unicode="," horiz-adv-x="534" d="M-47 -121q-10 28 14 35q51 12 83 36.5t38 55.5q3 22 -7.5 35.5t-29.5 13.5h-20q-20 0 -17 21l43 250q3 20 25 20h330q11 0 15 -4t3 -16l-35 -195q-29 -174 -129 -274q-78 -81 -221 -140q-29 -12 -37 11z" />
<glyph unicode="-" horiz-adv-x="647" d="M41 344l49 279q2 20 21 20h483q11 0 15 -4t3 -16l-49 -279q-5 -18 -24 -18h-484q-19 0 -14 18z" />
<glyph unicode="." horiz-adv-x="534" d="M29 160q12 70 76 120t139 50q71 0 118 -52t37 -118q-12 -67 -78.5 -119.5t-136.5 -52.5q-75 0 -121 51.5t-34 120.5z" />
<glyph unicode="/" horiz-adv-x="768" d="M-108 9q-4 9 2 20l815 1243q10 20 34 20h183q15 0 18.5 -8t-4.5 -20l-813 -1244q-13 -20 -35 -20h-186q-10 0 -14 9z" />
<glyph unicode="0" d="M68 358l100 576q31 173 173 279t341 106h61q197 0 299.5 -105.5t71.5 -279.5l-100 -576q-29 -170 -170.5 -277.5t-337.5 -107.5h-62q-200 0 -303.5 106t-72.5 279zM403 358q-6 -33 21.5 -58.5t73.5 -25.5h61q47 0 78 23.5t37 60.5l100 576q6 37 -17 61.5t-67 24.5h-61 q-45 0 -82 -26.5t-43 -59.5z" />
<glyph unicode="1" d="M104 20l46 263q5 18 22 18h197q25 0 28 23l72 405q1 9 -4 12t-14 -2l-48 -24q-17 -9 -28 2l-162 170q-12 15 6 28l465 365q15 12 37 12h170q19 0 16 -20l-168 -948q-2 -11 3.5 -17t21.5 -6h194q20 0 15 -18l-45 -263q-2 -20 -23 -20h-786q-17 0 -15 20z" />
<glyph unicode="2" d="M39 20l53 308q16 93 60.5 168t103 122t125.5 84.5t132 63.5t119.5 49.5t91 52t42.5 62.5q6 39 -14.5 64.5t-63.5 25.5h-72q-85 0 -167 -115q-20 -28 -41 -16l-234 117q-21 10 2 38q55 79 113 134q76 73 163.5 107t200.5 34h78q205 0 305.5 -97t71.5 -261l-16 -93 q-11 -59 -44 -110.5t-79 -87t-102.5 -68t-113 -55.5t-111.5 -47.5t-98.5 -46t-72.5 -49t-35 -58.5l-4 -22q-2 -12 2.5 -17.5t20.5 -5.5h503q22 0 17 -18l-45 -263q-2 -20 -25 -20h-852q-17 0 -14 20z" />
<glyph unicode="3" d="M35 248q-10 29 12 39l275 116q12 5 21.5 0t12.5 -16q23 -58 53 -86.5t74 -28.5h43q50 0 82.5 26.5t40.5 66.5l13 67q6 38 -16.5 60t-76.5 22h-219q-19 0 -16 18l47 265q3 18 22 18h220q52 0 83 23t37 59l7 37q6 38 -17 62t-74 24h-43q-85 0 -167 -115q-20 -28 -41 -16 l-234 117q-21 10 2 38q56 76 111 132q78 75 165.5 109t200.5 34h60q202 0 304 -110.5t70 -295.5l-6 -34q-9 -52 -42 -102.5t-76 -84.5q-13 -10 -14.5 -16.5t7.5 -13.5q74 -74 48 -224l-11 -57q-34 -187 -174.5 -297.5t-343.5 -110.5h-59q-207 0 -305 127q-45 57 -76 148z " />
<glyph unicode="4" d="M-2 279l39 225l711 774q11 14 32 14h258q4 0 8 -1.5t8 -6.5t3 -12l-123 -690q-4 -21 18 -21h133q9 0 14.5 -5.5t4.5 -14.5l-47 -262q-3 -19 -25 -19h-135q-19 0 -25 -22l-36 -218q-2 -20 -25 -20h-303q-9 0 -12 4t-2 16l36 218q7 22 -18 22h-500q-17 0 -14 19z M422.5 567.5q1.5 -6.5 11.5 -6.5h133q22 0 25 17l35 200q4 19 13 49.5t16 50.5l8 21h-7q-38 -69 -61 -100l-168 -217q-7 -8 -5.5 -14.5z" />
<glyph unicode="5" d="M49 203q-10 31 12 43l238 141q12 8 24.5 7t16.5 -13q38 -107 139 -107h64q48 0 82 26.5t41 72.5l10 59q6 36 -17 59t-69 23h-406q-19 0 -16 18l131 740q3 20 23 20h806q4 0 8 -1.5t8 -6.5t3 -12l-47 -262q-3 -19 -25 -19h-459q-24 0 -30 -22l-23 -131q-3 -23 23 -23h90 q206 0 291 -83t55 -265l-14 -88q-31 -191 -164 -298.5t-346 -107.5h-68q-204 0 -315 121q-43 49 -66 109z" />
<glyph unicode="6" d="M72 358l100 576q31 174 169 279.5t347 105.5h76q198 0 297 -119q46 -57 82 -156q10 -29 -10 -38l-275 -117q-14 -5 -24 0t-13 16q-23 58 -53 86.5t-74 28.5h-59q-45 0 -80 -25t-41 -61l-20 -125q-3 -10 4 -13.5t16 1.5q50 26 107 26h90q182 0 274.5 -108.5t61.5 -278.5 l-15 -78q-32 -173 -173.5 -279t-340.5 -106h-67q-200 0 -305 106.5t-74 278.5zM414 358q-6 -38 17.5 -61t72.5 -23h67q45 0 80 25t41 59l15 78q6 34 -21 60t-72 26h-67q-44 0 -78.5 -24.5t-40.5 -61.5z" />
<glyph unicode="7" d="M96 20l62 353q11 62 49 118t91 97.5t114.5 79t121.5 69t110.5 61.5t83.5 62.5t38 65.5l6 43q3 11 -1.5 16.5t-20.5 5.5h-504q-20 0 -17 19l47 262q2 20 23 20h848q19 0 16 -20l-76 -424q-13 -72 -62 -136t-113.5 -107.5t-138 -86.5t-136 -75t-107 -71t-51.5 -77l-47 -275 q-2 -20 -22 -20h-297q-19 0 -17 20z" />
<glyph unicode="8" d="M74 393l6 35q25 153 137 236q20 12 4 22q-83 69 -63 182l8 45q34 188 174 297t342 109h61q196 0 295 -107q108 -112 74 -299l-8 -45q-10 -60 -46 -107t-85 -75q-13 -6 -4 -20q39 -39 54.5 -101.5t2.5 -136.5l-10 -53q-35 -185 -173 -293.5t-337 -108.5h-62 q-203 0 -305 111q-99 114 -65 309zM403 358q-6 -33 22 -58.5t73 -25.5h61q47 0 78 23.5t37 60.5l14 84q6 36 -17.5 59t-68.5 23h-61q-46 0 -81.5 -24.5t-41.5 -57.5zM494 866q-5 -32 23 -57t71 -25h61q44 0 77 24t38 58l10 68q6 37 -17 61.5t-67 24.5h-61q-44 0 -82 -26.5 t-43 -59.5z" />
<glyph unicode="9" d="M29 190l227 191q23 20 41 -2q80 -107 190 -107h60q45 0 80 25t41 61l14 84q1 10 -5 14t-15 -1q-52 -27 -107 -27h-90q-181 0 -273.5 108.5t-62.5 278.5l21 119q29 173 172 279t344 106h67q199 0 303.5 -106.5t73.5 -278.5l-100 -576q-31 -175 -168 -280t-346 -105h-76 q-193 0 -314 101q-39 33 -75 78q-19 24 -2 38zM469 815q-6 -35 20 -60.5t72 -25.5h68q44 0 78.5 24.5t40.5 61.5l20 119q6 37 -17.5 60.5t-70.5 23.5h-68q-46 0 -81.5 -25t-41.5 -59z" />
<glyph unicode=":" horiz-adv-x="534" d="M29 158q12 71 75.5 120.5t139.5 49.5q70 0 118.5 -51.5t36.5 -118.5q-10 -65 -77.5 -117.5t-137.5 -52.5q-75 0 -121 51t-34 119zM115 645q10 69 75 119.5t140 50.5q70 0 118.5 -51.5t36.5 -118.5q-12 -69 -77.5 -118.5t-137.5 -49.5q-75 0 -121 49.5t-34 118.5z" />
<glyph unicode=";" horiz-adv-x="534" d="M-47 -121q-10 28 14 35q51 12 83 36.5t38 55.5q3 22 -7.5 35.5t-29.5 13.5h-20q-20 0 -17 21l43 250q3 20 25 20h330q11 0 15 -4t3 -16l-35 -195q-29 -171 -127 -272q-80 -83 -223 -142q-29 -12 -37 11zM115 645q10 68 75.5 119t141.5 51q69 0 117 -52t36 -118 q-12 -69 -77 -118.5t-136 -49.5q-75 0 -122 49.5t-35 118.5z" />
<glyph unicode="&#x3c;" d="M100 426l29 172q3 11 16 18l791 383q16 8 25 -6l83 -180q9 -18 -12 -29l-543 -254q-17 -7 -19 -19t11 -19l451 -246q18 -9 6 -25l-143 -192q-13 -19 -29 -9l-657 386q-11 8 -9 20z" />
<glyph unicode="=" d="M23 225l36 205q3 21 23 21h948q20 0 17 -21l-37 -205q-3 -20 -23 -20h-948q-19 0 -16 20zM90 608l39 211q3 19 21 19h948q21 0 18 -19l-39 -211q-3 -18 -22 -18h-949q-19 0 -16 18z" />
<glyph unicode="&#x3e;" d="M94 221q-7 14 15 25l536 246q17 7 19 19t-11 19l-452 254q-20 10 -4 29l149 180q11 14 25 6l655 -383q11 -7 8 -18l-28 -172q-3 -13 -17 -20l-792 -386q-20 -9 -29 9z" />
<glyph unicode="?" horiz-adv-x="1085" d="M152 1051q77 114 170 174q134 86 301 86h75q205 0 310 -115q92 -106 65 -270q-36 -195 -190 -281q-44 -24 -120 -48t-116.5 -47t-48.5 -65l-14 -75q-3 -23 -29 -23h-256q-32 0 -27 33l21 110q18 98 73.5 154.5t137.5 93.5q23 11 61 25.5t61 24t48 24t39 33t18 41.5 q6 36 -19 61t-67 25h-76q-39 0 -82 -27t-69 -70q-25 -45 -58 -28l-202 106q-32 18 -6 58zM199 160q12 70 76 120t139 50q71 0 118 -52t37 -118q-12 -67 -78.5 -119.5t-136.5 -52.5q-75 0 -121 51.5t-34 120.5z" />
<glyph unicode="@" horiz-adv-x="1589" d="M115 352l104 588q31 171 169.5 275t336.5 104h469q182 0 287 -94q112 -106 82 -285l-76 -424q-17 -94 -99.5 -155.5t-187.5 -61.5h-80q-104 0 -159 31q-18 9 -35 -2q-68 -47 -166 -47q-150 0 -219.5 76t-46.5 218l24 150q21 127 106.5 201.5t229.5 74.5q81 0 119 -38 q4 -5 10.5 -4.5t7.5 10.5l4 16q3 16 19 16h168q28 0 22 -26l-80 -449q-2 -12 3 -17t20 -5h84q30 0 33 22l73 414q14 75 -35 120.5t-147 45.5h-469q-99 0 -164.5 -46t-79.5 -120l-104 -588q-14 -75 35.5 -120.5t150.5 -45.5h588q11 0 19.5 -8.5t7.5 -19.5l-29 -154 q-3 -13 -13.5 -22t-21.5 -9h-588q-219 0 -317 125q-82 102 -55 254zM721 569q-6 -36 17.5 -61t64.5 -25q40 0 71 25.5t37 60.5l25 136q6 36 -16 62t-62 26q-42 0 -74.5 -25.5t-38.5 -62.5z" />
<glyph unicode="A" horiz-adv-x="1073" d="M-102 8q-2 3 -1 7q0 5 3 12l649 1251q8 14 22 14h224q14 0 16 -14l207 -1251q1 -4 1 -8q1 -9 -3 -13q-4 -6 -21 -6h-321q-14 0 -17 14l-26 154q0 14 -23 14h-246q-20 0 -28 -14l-82 -154q-6 -14 -21 -14h-315q-14 0 -18 8zM453 442q-2 -4 -2 -7q0 -11 20 -11h119 q20 0 20 18l-4 160q-1 36 -1 70q1 25 1 49q2 56 4 95l2 38h-6q-39 -131 -88 -252z" />
<glyph unicode="B" horiz-adv-x="1193" d="M23 20l221 1252q2 20 20 20h572q226 0 321 -102q62 -70 62 -181q0 -38 -7 -81l-10 -60q-10 -65 -53 -119.5t-105 -84.5q-29 -14 -4 -27q52 -29 74 -85q15 -36 14 -76q0 -21 -4 -44l-10 -57q-30 -169 -163.5 -272t-342.5 -103h-571q-14 0 -14 14v6zM418 324q-1 -4 -1 -7 q0 -7 3 -11q4 -6 18 -5h224q42 0 76 25.5t40 58.5l10 57q6 35 -17 58.5t-71 23.5h-223q-25 0 -28 -22zM502 807q-3 -23 22 -23h224q51 0 80.5 22t35.5 60l6 39q1 8 1 16q0 29 -17 47q-22 24 -72 23h-223q-23 0 -29 -22z" />
<glyph unicode="C" horiz-adv-x="1099" d="M51 358l101 576q31 175 169 280t345 105h141q173 0 268 -88q66 -61 111 -187q3 -10 3 -17q0 -15 -13 -21l-275 -117q-14 -5 -24 0t-13 16q-45 115 -129 115h-123q-52 0 -85.5 -23.5t-39.5 -62.5l-100 -576q-1 -8 -1 -15q0 -29 19 -47q24 -24 74 -24h123q88 0 170 115 q20 28 43 16l234 -116q19 -10 -5 -39q-78 -111 -155 -170q-134 -105 -320 -105h-141q-208 0 -308 105q-77 80 -76 201q0 38 7 79z" />
<glyph unicode="D" horiz-adv-x="1200" d="M23 20l221 1252q2 20 20 20h572q204 0 302 -108q74 -82 74 -209q0 -41 -8 -88l-84 -486q-32 -185 -171 -293t-341 -108h-571q-14 0 -14 14v6zM418 324q-1 -4 -1 -7q0 -7 3 -11q4 -6 18 -5h224q42 0 76 25.5t40 58.5l92 520q1 6 1 12q0 25 -21 47q-26 27 -68 27h-223 q-23 0 -29 -22z" />
<glyph unicode="E" horiz-adv-x="1015" d="M39 381l10 57q27 153 125 224q20 14 6 30q-34 34 -48 84q-9 31 -8 63q0 20 3 40l6 34q32 185 173.5 295.5t344.5 110.5h60q176 0 272 -92q60 -58 107 -183q3 -9 3 -17q0 -15 -14 -21l-274 -117q-14 -5 -24 0t-13 16q-23 58 -53 86.5t-74 28.5h-43q-51 0 -84 -24t-39 -62 l-6 -37q-6 -36 17 -59t75 -23h219q10 0 15 -4t4 -14l-47 -265q-3 -18 -25 -18h-219q-54 0 -84.5 -22t-36.5 -60l-12 -67q-2 -10 -3 -19q0 -28 18 -48q24 -26 75 -26h43q86 0 168 115q20 28 43 16l233 -116q19 -11 -4 -39q-80 -112 -162 -176q-131 -99 -313 -99h-59 q-205 1 -307 111q-77 83 -77 208q0 42 9 89z" />
<glyph unicode="F" horiz-adv-x="989" d="M23 20l221 1252q2 20 20 20h852q8 0 14 -4.5t5 -15.5l-48 -262q-3 -19 -24 -19h-504q-23 0 -29 -22l-24 -142q-3 -22 20 -22h414q21 0 18 -19l-47 -264q-3 -18 -24 -18h-414q-22 0 -29 -23l-79 -461q-3 -20 -25 -20h-303q-14 0 -14 14v6z" />
<glyph unicode="G" horiz-adv-x="1159" d="M51 358l101 576q31 175 169 280t345 105h161q186 0 285 -105q57 -62 94 -170q3 -10 3 -17q0 -15 -13 -21l-274 -117q-14 -5 -24 0t-13 16q-23 58 -53 86.5t-74 28.5h-146q-52 0 -85.5 -23.5t-39.5 -62.5l-100 -576q-1 -7 -1 -14q0 -28 21 -47q26 -23 74 -23h144 q47 0 77.5 22t36.5 62l15 84q3 21 -21 21h-153q-8 0 -13 5t-2 15l37 219q3 21 23 21h499q11 0 14 -4t1 -17l-60 -344q-31 -182 -165 -283.5t-343 -101.5h-143q-212 0 -310 103q-74 77 -74 200q0 39 7 82z" />
<glyph unicode="H" horiz-adv-x="1259" d="M23 20l221 1252q2 20 20 20h303q4 0 8 -1.5t8 -6.5t3 -12l-80 -445q-3 -22 20 -22h330q28 0 31 22l80 445q3 20 20 20h297q22 0 19 -20l-222 -1252q-3 -20 -24 -20h-297q-18 0 -15 20l80 461q7 23 -22 23h-330q-22 0 -29 -23l-79 -461q-3 -20 -25 -20h-303q-14 0 -14 14 v6z" />
<glyph unicode="I" horiz-adv-x="542" d="M23 20l221 1252q2 20 20 20h301q8 0 15 -4.5t6 -15.5l-221 -1252q-3 -20 -27 -20h-301q-14 0 -14 14v6z" />
<glyph unicode="J" horiz-adv-x="925" d="M-80 268q-1 5 -1 9q0 15 15 20l293 119q26 11 33 -13q19 -122 115 -122q46 0 73 22.5t33 61.5l162 907q3 20 23 20h301q16 0 16 -15v-5l-156 -879q-35 -197 -170.5 -305t-351.5 -108q-232 0 -332 155q-35 56 -53 133z" />
<glyph unicode="K" horiz-adv-x="1155" d="M23 20l221 1252q2 20 20 20h303q4 0 8 -1.5t8 -6.5t3 -12l-51 -285q-13 -78 -43 -139l434 430q14 14 30 14h367q20 0 20 -13q0 -9 -12 -19l-540 -506q-11 -11 -5 -23l361 -700q5 -12 -1 -21.5t-22 -9.5h-395q-23 0 -31 16l-198 428q-9 21 -33 0l-33 -30l-69 -394 q-3 -20 -25 -20h-303q-14 0 -14 14v6z" />
<glyph unicode="L" horiz-adv-x="989" d="M23 20l221 1252q2 20 20 20h303q21 0 19 -20l-168 -948q-2 -12 2 -17.5t18 -5.5h504q17 0 17 -12q0 -3 -1 -6l-45 -263q-3 -20 -24 -20h-852q-14 0 -14 14v6z" />
<glyph unicode="M" horiz-adv-x="1419" d="M23 20l221 1252q2 20 20 20h305q16 0 19 -12l133 -629q4 -20 6 -40.5t2 -30.5v-11h8q16 37 41 82l346 629q9 12 23 12h297q20 0 18 -20l-221 -1252q-3 -20 -24 -20h-283q-10 0 -13 4t-1 16l47 265q16 86 36 180t32 145l12 52h-7q-35 -93 -84 -185l-161 -303 q-10 -20 -39 -20h-199q-31 0 -33 20l-53 309q-7 41 -12 85.5t-7 69.5l-1 24h-7q-12 -178 -47 -373l-47 -269q-2 -20 -24 -20h-289q-14 0 -14 14v6z" />
<glyph unicode="N" horiz-adv-x="1177" d="M23 20l221 1252q2 20 20 20h260q19 0 25 -18l201 -578q8 -24 14.5 -48.5t9.5 -37.5l2 -12h6q19 160 52 342l59 332q1 12 6 16t14 4h289q8 0 14 -4.5t5 -15.5l-222 -1252q-3 -20 -24 -20h-256q-15 0 -19 18l-206 566l-27 92h-8q-16 -162 -45 -330l-58 -326q-2 -20 -24 -20 h-295q-14 0 -14 14v6z" />
<glyph unicode="O" horiz-adv-x="1167" d="M51 358l101 576q31 173 173 279t341 106h143q197 1 299 -105q79 -81 79 -203q0 -37 -7 -77l-101 -576q-31 -173 -171 -279t-337 -106h-143q-200 0 -304 106q-80 82 -80 203q0 36 7 76zM387 358q-1 -8 -1 -15q0 -29 18 -47q24 -22 77 -22h144q46 0 77 23.5t37 60.5 l101 576q1 8 1 15q0 27 -18 47q-23 24 -67 24h-144q-45 0 -82 -26.5t-43 -59.5z" />
<glyph unicode="P" horiz-adv-x="1056" d="M23 20l221 1252q2 20 20 20h490q202 0 304 -97q77 -74 77 -194q0 -38 -7 -81l-14 -82q-27 -154 -165 -244t-335 -90h-141q-22 0 -29 -23l-79 -461q-3 -20 -25 -20h-303q-14 0 -14 14v6zM506 827q-3 -22 20 -22h142q47 0 77.5 19t36.5 53l9 41q1 6 1 12q0 24 -20 40 q-24 20 -72 21h-141q-23 0 -29 -22z" />
<glyph unicode="Q" horiz-adv-x="1183" d="M49 344l103 590q31 173 173 279t341 106h143q197 0 299 -105q79 -82 79 -203q0 -37 -7 -77l-103 -590q-26 -148 -134 -247.5t-267 -127.5q-18 -3 -21 -20l-16 -92q-3 -21 -27 -21h-284q-20 0 -17 21l17 92q0 16 -17 20q-147 28 -217 128q-52 73 -52 171q0 36 7 76z M381 324q-1 -8 -1 -15q0 -17 7 -28q5 -6 12 -6t11 6l69 90q14 20 35 20h109q19 0 28 -20l37 -90q3 -8 11 -9h1l15 9q15 18 18 43l107 610q1 8 1 15q0 27 -18 47q-23 24 -67 24h-144q-45 0 -82 -26.5t-43 -59.5z" />
<glyph unicode="R" horiz-adv-x="1185" d="M23 20l221 1252q2 20 20 20h572q202 0 296 -106q77 -86 76 -230q0 -33 -4 -69l-2 -19q-10 -91 -65 -163.5t-136 -118.5q-23 -14 -16 -45l109 -514q3 -11 -3 -19t-20 -8h-319q-14 0 -17 14l-104 475q-3 15 -17 15h-141q-22 0 -29 -23l-79 -461q-3 -20 -25 -20h-303 q-14 0 -14 14v6zM502 807q-3 -23 22 -23h224q49 0 79.5 21t36.5 61l6 39q1 9 1 17q0 30 -17 47q-22 22 -72 22h-223q-23 0 -29 -22z" />
<glyph unicode="S" horiz-adv-x="1009" d="M-14 203q-3 10 -3 18q0 17 15 25l238 141q12 8 24 7t16 -13q38 -107 140 -107h63q48 0 81 25.5t40 69.5q4 22 -2 40t-16.5 29.5t-35 23.5t-42.5 18.5t-56 19t-61 20.5q-46 17 -82 34t-69.5 37.5t-55.5 43.5t-40.5 52t-25 62t-8.5 75v12q0 36 9 77q34 190 172.5 298 t349.5 108h31q172 0 278 -86q66 -54 101 -141q3 -10 3 -19q0 -18 -16 -26l-237 -142q-12 -8 -24.5 -7t-16.5 13q-38 107 -138 107h-34q-105 0 -119 -94q-2 -13 0 -24.5t9 -22t15 -18.5t23 -16.5t26 -14t30.5 -13t31.5 -11.5t34 -11t32 -11q70 -24 119.5 -49.5t88.5 -60 t57 -76.5q18 -40 25 -96q2 -18 2 -37q0 -40 -10 -86q-32 -190 -168 -297t-350 -107h-63q-212 0 -324 131q-35 40 -57 99z" />
<glyph unicode="T" horiz-adv-x="903" d="M104 1010l48 262q2 20 22 20h848q18 0 16 -20l-47 -262q-3 -19 -22 -19h-230q-14 0 -19.5 -5t-8.5 -17l-166 -949q-3 -20 -25 -20h-301q-17 0 -14 20l166 949q3 11 -2 16.5t-21 5.5h-227q-20 0 -17 19z" />
<glyph unicode="U" horiz-adv-x="1206" d="M72 358l161 914q3 20 21 20h297q19 0 16 -20l-161 -914q-1 -8 -1 -16q-1 -29 17 -46q22 -22 78 -22h143q104 0 117 84l162 914q2 20 20 20h301q11 0 14.5 -4t2.5 -16l-162 -914q-31 -173 -171 -279t-337 -106h-144q-199 0 -302 106q-79 81 -79 203q0 36 7 76z" />
<glyph unicode="V" horiz-adv-x="1073" d="M119 1266q-3 26 24 26h322q8 0 11.5 -2t4.5 -4t2 -8l62 -547q9 -79 9 -142q0 -17 -1 -34h6q17 61 68 176l247 547q6 14 21 14h328q13 0 16 -8q1 -3 1 -7q0 -5 -3 -11l-649 -1252q-6 -14 -21 -14h-223q-16 0 -18 14z" />
<glyph unicode="W" horiz-adv-x="1470" d="M129 1268q0 24 23 24h315q16 0 16 -16l-4 -621q0 -21 -2.5 -51t-4.5 -50l-3 -19h6q17 73 35 120l246 617q8 20 24 20h217q21 0 21 -18l10 -617q0 -23 -3 -53.5t-6 -49.5l-3 -19h6q17 71 35 122l217 619q6 16 20 16h316q17 0 17 -12q0 -5 -3 -12l-520 -1252 q-6 -16 -21 -16h-241q-14 0 -17 14l-43 623q-2 26 -0.5 51t4.5 44l2 18h-6q-14 -66 -34 -113l-261 -623q-6 -14 -22 -14h-240q-13 0 -16 16z" />
<glyph unicode="X" horiz-adv-x="1101" d="M-86 10q-1 2 -1 4q0 8 7 17l451 592q15 22 8 39l-250 602q-4 12 1.5 20t16.5 8h342q27 0 33 -18l103 -311q9 -25 28 0l213 311q12 18 37 18h342q11 0 15 -8q1 -2 1 -5q0 -7 -6 -15l-462 -602q-15 -19 -7 -41l244 -590q5 -12 -1 -21.5t-21 -9.5h-330q-29 0 -39 27 l-100 301q-2 7 -6 9.5t-9 0t-10 -9.5l-207 -301q-17 -27 -47 -27h-328q-15 0 -18 10z" />
<glyph unicode="Y" horiz-adv-x="1003" d="M68 1262q-2 5 -2 9q0 7 4 12q6 9 18 9h342q22 0 31 -20l110 -299q5 -13 17 -13t22 13l224 299q14 20 34 20h338q17 0 20 -9q1 -2 1 -4q0 -8 -8 -17l-527 -682l-98 -560q-2 -20 -25 -20h-299q-9 0 -12 4t-2 16l98 560z" />
<glyph unicode="Z" horiz-adv-x="985" d="M-88 8q-1 3 -1 7q0 6 5 14l641 932q8 12 4 21t-22 9h-359q-19 0 -16 19l47 262q3 20 22 20h879q16 0 20 -9q1 -3 1 -6q0 -6 -5 -13l-639 -932q-10 -12 -5.5 -21.5t22.5 -9.5h397q22 0 17 -18l-46 -263q-2 -20 -24 -20h-922q-12 0 -16 8z" />
<glyph unicode="[" horiz-adv-x="862" d="M61 -305l310 1755q1 12 6 16t16 4h484q21 0 18 -20l-47 -262q-3 -21 -25 -21h-139q-26 0 -29 -20l-202 -1149q-3 -21 20 -21h139q22 0 19 -20l-45 -262q-6 -21 -27 -21h-483q-21 0 -15 21z" />
<glyph unicode="\" horiz-adv-x="768" d="M113 1264q-3 11 2.5 19.5t17.5 8.5h197q11 0 14 -12l377 -1251q5 -11 -2.5 -20t-20.5 -9h-190q-16 0 -19 12z" />
<glyph unicode="]" horiz-adv-x="862" d="M6 -305l45 262q3 20 23 20h133q29 0 33 21l202 1149q2 11 -3.5 15.5t-20.5 4.5h-133q-20 0 -17 21l47 262q3 20 23 20h483q21 0 19 -20l-310 -1755q-6 -21 -26 -21h-484q-20 0 -14 21z" />
<glyph unicode="^" d="M-8 475l430 844h258l444 -844h-325l-244 553h-8l-230 -553h-325z" />
<glyph unicode="_" horiz-adv-x="550" d="M-174 -401l29 157q3 19 22 19h555q12 0 15.5 -4t1.5 -15l-29 -157q-3 -21 -23 -21h-555q-19 0 -16 21z" />
<glyph unicode="`" horiz-adv-x="1107" d="M232 1454.5q7 11.5 22 11.5h336q26 0 35 -18l184 -313q6 -11 1 -20t-17 -9h-240q-25 0 -43 18l-277 310q-8 9 -1 20.5z" />
<glyph unicode="a" horiz-adv-x="1028" d="M41 385l39 219q30 175 147 269t299 94q137 0 211 -74q3 -3 7.5 -4t8.5 1.5t5 8.5l10 49q0 6 8 12.5t17 6.5h217q21 0 18 -19l-164 -928q-2 -20 -22 -20h-234q-18 0 -18 16l10 50q2 9 -5.5 12t-16.5 -4q-84 -74 -203 -74q-203 0 -286 94q-58 66 -58 183q0 49 10 108z M377 344q-1 -8 -1 -16q0 -28 18 -46q22 -22 69 -22q48 0 81.5 23t39.5 61l49 281q1 7 1 14q0 27 -19 45q-24 23 -72 23q-49 0 -80 -22.5t-37 -59.5z" />
<glyph unicode="b" horiz-adv-x="1028" d="M8 20l221 1252q3 20 23 20h297q7 0 13 -4.5t5 -15.5l-43 -236q-14 -85 -37 -125q78 56 162 56q187 1 281 -103q71 -78 71 -197q0 -39 -8 -83l-35 -199q-35 -198 -150.5 -291.5t-318.5 -93.5q-120 0 -178 74q-5 7 -12.5 4t-9.5 -12l-10 -50q0 -7 -7.5 -11.5t-15.5 -4.5 h-231q-19 0 -17 20zM403 344q-1 -7 -1 -14q0 -28 20 -47q24 -23 70 -23q49 0 80.5 22.5t37.5 61.5l49 281q1 8 1 14q0 27 -18 45q-24 22 -71 23q-50 0 -81 -22t-37 -60z" />
<glyph unicode="c" horiz-adv-x="937" d="M37 360l43 246q31 175 168 281t342 106q232 0 319 -149q35 -60 47 -135q2 -7 2 -13q0 -20 -20 -28l-242 -97q-13 -6 -21.5 0t-10.5 17q-17 62 -44 93.5t-79 31.5q-48 0 -78.5 -23.5t-36.5 -62.5l-51 -287q-1 -9 -1 -17q0 -28 16 -46q22 -23 71 -23q52 0 91.5 32t74.5 93 q19 26 39 16l208 -96q20 -9 3 -41q-58 -104 -119 -160q-131 -125 -348 -125q-204 0 -304 106q-76 81 -76 202q0 37 7 79z" />
<glyph unicode="d" horiz-adv-x="1028" d="M41 385l35 199q31 176 161.5 279.5t317.5 103.5q82 0 141 -56q-2 11 -2 25q0 37 11 100l43 236q2 20 22 20h299q16 0 16 -15v-5l-221 -1252q-2 -20 -22 -20h-234q-18 0 -18 16l10 50q2 9 -5.5 12t-16.5 -4q-84 -74 -203 -74q-203 0 -286 94q-58 66 -58 183q0 49 10 108z M377 344q-1 -8 -1 -16q0 -28 18 -46q22 -22 69 -22q48 0 81.5 23t39.5 61l49 281q1 8 1 14q0 27 -18 45q-24 22 -73 22.5t-80 -22t-37 -59.5z" />
<glyph unicode="e" horiz-adv-x="1003" d="M37 360l43 246q20 114 96 203t187 136.5t237 47.5q186 0 294 -110q85 -87 85 -209q0 -33 -6 -68l-29 -164q-2 -20 -22 -20h-504q-29 0 -33 -25l-6 -39q-1 -8 -1 -16q0 -32 20 -52q25 -26 77 -26q101 0 176 107q7 11 19.5 12.5t21.5 -6.5l189 -141q4 -2 6 -5t2 -6.5 t-0.5 -6.5t-3 -7t-3.5 -6t-4 -6.5t-4 -5.5q-65 -84 -141 -134q-134 -86 -313 -86q-200 0 -307 107q-83 83 -83 206q0 35 7 74zM422 608q-1 -9 5 -14.5t17 -5.5h199q29 0 33 24l4 29q1 8 1 15q0 32 -22 55q-27 28 -86 28t-97.5 -27.5t-47.5 -74.5z" />
<glyph unicode="f" horiz-adv-x="649" d="M-330 -436l107 237q8 16 33 13q52 -9 96 -9q50 0 82.5 27t40.5 72l116 661q2 11 -3.5 16t-22.5 5h-56q-17 0 -14 20l43 240q3 20 23 20h57q26 0 29 21q45 190 186.5 307t339.5 117q88 0 162 -17q17 -4 17 -16q0 -5 -3 -12l-104 -238q-8 -15 -35 -12q-46 8 -96 8t-81 -26 t-40 -72l-8 -39q-2 -11 3 -16t19 -5h133q20 0 17 -20l-43 -240q-3 -20 -25 -20h-133q-24 0 -27 -21l-100 -567q-39 -224 -185 -351.5t-350 -127.5q-93 0 -163 16q-17 4 -17 19q0 4 2 10z" />
<glyph unicode="g" horiz-adv-x="1024" d="M-45 -254q-4 12 -4 21q0 16 12 22l238 141q12 8 24 6.5t15 -12.5q38 -106 139 -106q107 0 123 92l18 106q3 11 -3.5 15t-16.5 -2q-56 -29 -121 -29q-195 0 -283 98q-64 73 -64 192q0 43 9 93l39 221q31 176 146 269.5t296 93.5q137 0 211 -74q3 -3 7.5 -4t8.5 1.5t5 8.5 l10 49q0 6 7.5 12.5t16.5 6.5h218q21 0 18 -19l-184 -1042q-33 -183 -163.5 -285t-348.5 -102q-196 0 -303 116q-46 49 -70 111zM371 342q-1 -8 -1 -15q0 -27 18 -45q22 -22 69 -22q49 0 82 23.5t39 58.5l51 283q1 7 1 14q0 27 -19 45q-24 23 -72 23q-49 0 -80 -22.5 t-37 -59.5z" />
<glyph unicode="h" horiz-adv-x="1044" d="M8 20l221 1252q3 20 23 20h297q7 0 13 -4.5t5 -15.5l-43 -236q-14 -85 -37 -125q78 56 162 56q187 0 279 -103q69 -77 69 -196q0 -40 -8 -84l-98 -564q-3 -20 -25 -20h-299q-17 0 -14 20l102 584q1 8 1 15q0 27 -18 45q-22 22 -71 22q-48 0 -80 -23.5t-38 -58.5 l-103 -584q-2 -20 -24 -20h-297q-19 0 -17 20z" />
<glyph unicode="i" horiz-adv-x="509" d="M8 20l164 928q3 19 23 19h299q6 0 11.5 -5t4.5 -14l-164 -928q-2 -20 -22 -20h-299q-19 0 -17 20zM217 1184q12 68 71 115t128 47q71 0 113 -47q33 -37 33 -86q0 -14 -3 -29q-12 -66 -71 -112t-130 -46q-72 0 -112 44q-31 34 -32 84q0 14 3 30z" />
<glyph unicode="j" horiz-adv-x="509" d="M-262 -461l47 264q6 27 31 27q158 0 174 94l182 1024q3 19 23 19h299q6 0 11.5 -5t4.5 -14l-182 -1028q-70 -401 -570 -401q-23 0 -20 20zM213 1184q12 68 71 115t128 47q71 0 113 -47q33 -37 33 -86q0 -14 -3 -29q-12 -66 -71 -112t-130 -46q-72 0 -112 44 q-32 35 -32 84q0 14 3 30z" />
<glyph unicode="k" horiz-adv-x="1011" d="M8 20l221 1252q3 20 23 20h297q21 0 18 -20l-88 -492q-14 -85 -37 -125l293 297q13 15 39 15h311q19 0 19 -14q0 -9 -10 -19l-351 -316q-17 -17 -8 -36l240 -551q5 -11 -2 -21t-23 -10h-329q-25 0 -31 16l-137 346q-6 19 -25 3l-10 -9q-16 -10 -19 -30l-53 -306 q-2 -20 -20 -20h-301q-19 0 -17 20z" />
<glyph unicode="l" horiz-adv-x="509" d="M8 20l221 1252q3 20 25 20h297q16 0 16 -15v-5l-221 -1252q-2 -20 -22 -20h-297q-21 0 -19 20z" />
<glyph unicode="m" horiz-adv-x="1509" d="M8 20l164 928q3 19 23 19h217q10 0 15 -6t5 -13l-10 -49q-1 -8 6.5 -9.5t13.5 3.5q96 74 226 74q115 0 182 -64q16 -16 37 0q86 64 237 64q183 0 273 -97q68 -73 68 -188q0 -37 -7 -78l-102 -584q-2 -20 -21 -20h-303q-16 0 -14 20l102 584q2 13 2 24q0 58 -67 58 q-40 0 -67.5 -22t-33.5 -60l-102 -584q-2 -20 -25 -20h-299q-9 0 -12 4t-2 16l102 584q2 11 2 21q0 61 -69 61q-39 0 -66.5 -22t-33.5 -60l-103 -584q-2 -20 -24 -20h-297q-19 0 -17 20z" />
<glyph unicode="n" horiz-adv-x="1044" d="M8 20l164 928q3 19 23 19h217q10 0 15 -6t5 -13l-10 -49q-1 -8 6.5 -9.5t13.5 3.5q100 74 236 74q182 1 264 -93q60 -68 59 -180q0 -42 -8 -90l-102 -584q-3 -20 -25 -20h-299q-17 0 -14 20l102 584q1 8 1 15q0 27 -18 45q-22 22 -71 22q-48 0 -80 -23t-38 -59l-103 -584 q-2 -20 -24 -20h-297q-19 0 -17 20z" />
<glyph unicode="o" horiz-adv-x="1003" d="M37 360l43 246q31 173 175 280t345 107q198 1 301 -105q79 -81 79 -204q0 -37 -7 -78l-43 -246q-31 -174 -172 -280.5t-338 -106.5q-200 0 -307 107q-83 83 -83 206q0 35 7 74zM373 330q-1 -7 -1 -14q0 -28 20 -48q25 -24 75 -24q44 0 76.5 24.5t38.5 61.5l55 307 q1 8 1 15q0 26 -18 46q-24 24 -69 25q-48 0 -82.5 -25t-40.5 -61z" />
<glyph unicode="p" horiz-adv-x="1028" d="M-49 -305l219 1251q3 21 25 21h231q8 0 13.5 -5t4.5 -12l-8 -49q-2 -9 6 -12t15 4q84 74 202 74q203 0 286 -93q58 -66 58 -184q0 -49 -10 -108l-35 -199q-31 -176 -161.5 -279.5t-317.5 -103.5q-65 0 -112 29q-8 6 -14 2t-9 -15l-55 -321q-1 -11 -9.5 -16t-15.5 -5h-297 q-16 0 -16 16v5zM401 342q-1 -7 -1 -14q0 -28 19 -46q24 -22 73 -22t79.5 22.5t36.5 59.5l51 281q2 9 2 16q0 27 -19 45q-24 23 -71 23t-78.5 -23t-39.5 -61z" />
<glyph unicode="q" horiz-adv-x="1028" d="M41 383l35 199q35 198 150.5 291.5t318.5 93.5q117 0 178 -74q5 -7 14 -4t11 12l8 49q0 7 7 12t15 5h232q16 0 16 -16v-5l-219 -1251q-3 -21 -25 -21h-297q-6 0 -11.5 5t-4.5 16l55 321q3 11 -2.5 15t-15.5 -2q-56 -29 -121 -29q-187 0 -281 104q-71 77 -71 196 q0 39 8 83zM375 342q-1 -8 -1 -14q0 -28 18 -46q24 -22 71 -22q50 0 81.5 22.5t37.5 59.5l51 281q2 8 2 16q0 27 -21 45q-25 23 -71 23q-49 0 -79 -22.5t-38 -61.5z" />
<glyph unicode="r" horiz-adv-x="643" d="M8 20l164 928q3 19 23 19h219q10 0 14.5 -6t1.5 -15l-10 -67q-2 -8 5 -10.5t13 3.5q92 95 236 95h45q17 0 17 -16q0 -3 -1 -7l-49 -276q-2 -13 -11 -20t-22 -3q-47 12 -98 12q-43 0 -75.5 -28t-39.5 -72l-94 -537q-2 -20 -24 -20h-297q-19 0 -17 20z" />
<glyph unicode="s" horiz-adv-x="919" d="M-16 172q-6 11 -6 21q0 14 14 22l205 129q10 8 22.5 6.5t16.5 -12.5q18 -51 61.5 -79t97.5 -28h60q65 0 75 56q3 18 -4 30.5t-23.5 19t-30 9.5t-34.5 6l-28 4q-72 14 -108 22t-88 28t-83 47q-59 54 -59 146q0 30 6 63q27 157 146.5 244t295.5 87h43q201 0 305 -104 q41 -41 64 -94q6 -12 6 -21q0 -13 -12 -22l-205 -129q-12 -8 -24.5 -7t-16.5 13q-18 51 -62 78.5t-98 27.5h-47q-64 0 -74 -55q-2 -11 0.5 -20.5t11.5 -16t15 -11t21.5 -9t21.5 -6t23.5 -4.5t19.5 -3q150 -28 203 -48q77 -30 112 -79q33 -46 33 -113q0 -28 -6 -59 q-28 -160 -148.5 -249t-304.5 -89h-47q-200 0 -305 105q-43 43 -65 94z" />
<glyph unicode="t" horiz-adv-x="696" d="M35 705l26 151l316 258q17 14 39 14h157q10 0 15 -4t4 -14l-23 -121q-2 -11 4 -16.5t21 -5.5h137q20 0 17 -19l-43 -243q-5 -19 -23 -19h-137q-30 0 -33 -22l-45 -254q-3 -19 -3 -35q0 -94 105 -94h35q25 0 21 -23l-45 -254q-3 -24 -37 -24h-94q-189 0 -273 103 q-60 74 -60 189q0 45 9 97l51 295q2 12 -3 17t-21 5h-103q-15 0 -15 12q0 3 1 7z" />
<glyph unicode="u" horiz-adv-x="1044" d="M57 362l103 584q3 21 22 21h299q20 0 17 -21l-103 -584q-6 -37 16.5 -59t69.5 -21q50 0 82.5 22t38.5 58l103 584q3 21 22 21h301q14 0 14 -15v-6l-161 -928q-5 -18 -23 -18h-219q-9 0 -16 6t-5 12l9 50q1 8 -6 9.5t-13 -3.5q-100 -74 -235 -74q-183 0 -265 93 q-60 68 -59 179q0 42 8 90z" />
<glyph unicode="v" horiz-adv-x="915" d="M27 940q-1 4 -1 8q0 8 4 12q6 8 17 7h322q17 0 20 -17l55 -420q10 -63 10 -107q0 -11 -1 -20q8 24 53 127l188 418q8 19 31 19h317q19 0 19 -13q0 -6 -4 -14l-537 -924q-8 -16 -26 -16h-242q-17 0 -23 16z" />
<glyph unicode="w" horiz-adv-x="1292" d="M53 942q-3 25 23 25h291q14 0 18 -19l18 -387v-129q16 72 39 129l152 389q7 17 20 17h240q15 0 20 -19l16 -391q1 -24 0 -55.5t-2 -50.5l-1 -19q21 72 41 125l151 391q8 19 27 19h287q13 0 16 -8q1 -3 1 -6q0 -5 -3 -11l-461 -928q-6 -14 -24 -14h-217q-17 0 -17 18 l-24 414q-2 29 -1.5 56.5t1.5 47.5l2 19q-18 -68 -43 -123l-179 -416q-6 -16 -22 -16h-221q-16 0 -19 14z" />
<glyph unicode="x" horiz-adv-x="976" d="M-131 9q-1 2 -1 5q0 7 7 15l395 426q17 17 19.5 28.5t-8.5 30.5l-242 424q-6 10 0 19.5t18 9.5h338q24 0 35 -19l92 -186q13 -29 39 0l158 186q16 19 39 19h338q13 1 16 -9q1 -2 1 -5q0 -7 -7 -15l-395 -426q-27 -27 -11 -53l246 -430q6 -11 0.5 -20t-18.5 -9h-338 q-25 0 -33 18l-96 193q-12 26 -35 0l-162 -193q-15 -18 -41 -18h-338q-13 0 -16 9z" />
<glyph unicode="y" horiz-adv-x="1044" d="M-25 -254q-4 11 -4 20q0 16 13 23l237 141q12 8 24 6.5t15 -12.5q38 -106 139 -106q107 0 123 92l19 106q3 11 -4 15t-17 -2q-56 -29 -121 -29q-186 0 -277 103q-69 77 -69 195q0 40 8 85l99 563q3 21 22 21h299q20 0 17 -21l-103 -584q-6 -37 16.5 -59t69.5 -22 q49 0 82 23t39 58l103 584q3 21 22 21h301q14 0 14 -15v-6l-182 -1040q-33 -183 -163.5 -285t-348.5 -102q-196 0 -303 116q-46 49 -70 111z" />
<glyph unicode="z" horiz-adv-x="927" d="M-78 10v3q0 8 8 18l480 628q8 11 5.5 19t-16.5 8h-317q-17 0 -14 21l43 241q3 19 20 19h834q18 0 18 -14q0 -8 -6 -15l-483 -631q-9 -12 -6.5 -19t16.5 -7h354q19 0 16 -19l-43 -242q-3 -20 -22 -20h-868q-17 0 -19 10z" />
<glyph unicode="{" horiz-adv-x="956" d="M137 444l45 258q5 27 45 27q143 0 158 78l47 258q37 200 190.5 304t366.5 104q33 0 29 -29l-41 -234q-4 -22 -29 -22q-74 0 -122.5 -33.5t-57.5 -89.5l-49 -277q-13 -74 -46.5 -124.5t-78.5 -73.5q-35 -15 -6 -33q37 -23 52.5 -74t2.5 -125l-49 -276q-9 -56 27 -89.5 t110 -33.5q12 0 18.5 -6.5t4.5 -15.5l-43 -234q-4 -29 -39 -29q-247 0 -355 129q-88 105 -59 279l45 258q12 78 -131 78q-21 0 -29.5 5.5t-5.5 20.5z" />
<glyph unicode="|" horiz-adv-x="532" d="M162 -512v2048h262v-2048h-262z" />
<glyph unicode="}" horiz-adv-x="956" d="M-25 -297l43 234q4 22 27 22q76 0 124.5 33.5t57.5 89.5l49 276q27 151 125 199q35 17 7 33q-82 49 -56 198l49 277q9 56 -27.5 89.5t-111.5 33.5q-10 0 -16 6.5t-4 15.5l41 234q4 29 41 29q248 0 358 -134q87 -108 55 -274l-47 -258q-8 -43 31.5 -60.5t101.5 -17.5 q21 0 28.5 -6t4.5 -21l-45 -258q-5 -26 -43 -26q-148 0 -160 -78l-45 -258q-24 -135 -107 -229t-197.5 -136.5t-252.5 -42.5q-19 0 -26 8t-5 21z" />
<glyph unicode="~" d="M18 506q69 98 142.5 149.5t181.5 51.5q117 0 231 -62q113 -67 193 -67q14 0 27 2.5t25 9t21 12t20 17t17 17.5t16.5 21l14 20t14 21.5t11.5 18.5l170 -201q-70 -105 -145 -153t-179 -48q-130 0 -233 62q-101 67 -191 67q-13 0 -25.5 -3t-22.5 -7t-21 -12t-18.5 -13.5 t-17.5 -17.5t-15 -17.5t-13.5 -19t-11 -17.5t-11 -17.5t-8.5 -14.5z" />
<glyph unicode="&#xa0;" />
<glyph unicode="&#xa1;" horiz-adv-x="634" d="M-12 -291l96 549l98 320q6 16 23 16h215q14 0 14 -16l-10 -322l-96 -547q-2 -20 -25 -20h-301q-16 0 -14 20zM166 821q12 67 78.5 119.5t136.5 52.5q75 0 121.5 -51.5t34.5 -120.5q-12 -70 -76 -120t-139 -50q-69 0 -117.5 52t-38.5 118z" />
<glyph unicode="&#xa2;" d="M61 438l43 246q31 175 163.5 281t328.5 106q24 0 27 21l16 96q3 20 25 20h147q17 0 14 -20l-16 -98q-3 -19 16 -19q217 -12 293 -170q25 -52 37 -115q5 -31 -18 -41l-242 -96q-27 -11 -35 17q-23 102 -84 120q-21 7 -24 -18l-72 -414q-1 -11 2.5 -15.5t11.5 -2.5 q66 17 129 121q19 26 41 16l207 -96q20 -10 4 -41q-60 -107 -133 -172q-116 -104 -297 -113q-19 0 -22 -20l-17 -92q-3 -21 -22 -21h-148q-19 0 -16 21l16 94q3 18 -16 18q-199 0 -294.5 106t-64.5 281zM391 418q-13 -86 80 -86q17 0 21 18l73 422q6 19 -12 19 q-49 0 -77 -23t-34 -63z" />
<glyph unicode="&#xa3;" d="M-104 20l45 263q5 18 24 18h164q95 16 107 84l16 96q3 11 -2.5 17t-22.5 6h-45q-17 0 -14 18l47 264q3 19 21 19h45q29 0 32 22l15 78q35 191 167.5 302.5t354.5 111.5q113 0 188 -34t127 -109q36 -54 64 -132q10 -29 -10 -38l-275 -117q-14 -5 -24 0t-13 16 q-23 59 -51.5 87t-73.5 28q-48 0 -78 -27t-36 -67l-19 -99q-3 -22 21 -22h137q21 0 18 -19l-47 -264q-3 -18 -24 -18h-138q-21 0 -28 -23l-15 -82q-13 -72 -75 -106q40 8 82 8h413q20 0 15 -18l-45 -263q-3 -20 -23 -20h-1028q-18 0 -16 20z" />
<glyph unicode="&#xa4;" horiz-adv-x="1292" d="M94 360q48 44 144 136q-66 113 -66 229q0 123 66 229q-21 21 -45 44t-53 50.5t-46 43.5q29 27 81 80.5t63 64.5q98 -94 143 -139q108 65 233 65q134 0 234 -65q98 94 143 139q29 -27 81 -80.5t63 -64.5q-21 -21 -45 -44t-53 -50.5t-46 -43.5q68 -110 68 -229 q0 -114 -68 -229q48 -44 144 -136q-11 -11 -63 -64.5t-81 -80.5q-23 24 -70 69.5t-71 69.5q-107 -65 -236 -65q-132 0 -233 65q-45 -45 -143 -139q-11 11 -63 64.5t-81 80.5zM377 727q0 -97 69.5 -167.5t167.5 -70.5q100 0 170 70t70 168q0 99 -72 166.5t-166 67.5 q-101 0 -170 -68.5t-69 -165.5z" />
<glyph unicode="&#xa5;" d="M-4 180l37 211q3 19 20 19h299q26 0 29 22l10 53q1 9 -5 16t-15 7h-299q-20 0 -17 18l37 207q3 21 23 21h194q15 0 21.5 9t1.5 21l-207 478q-5 11 1 20.5t19 9.5h334q26 0 35 -20l109 -291q8 -18 21 -17t26 17l215 289q17 22 45 22h332q17 0 20.5 -9t-6.5 -21l-373 -478 q-9 -12 -7 -21t17 -9h193q15 0 12 -21l-37 -207q-3 -18 -18 -18h-301q-28 0 -31 -23l-10 -53q-3 -22 22 -22h301q19 0 15 -19l-37 -211q-5 -18 -21 -18h-301q-27 0 -30 -23l-21 -119q-3 -20 -22 -20h-301q-20 0 -17 20l21 119q5 23 -21 23h-299q-19 0 -14 18z" />
<glyph unicode="&#xa6;" horiz-adv-x="532" d="M166 -326v717h262v-717h-262zM166 754v716h262v-716h-262z" />
<glyph unicode="&#xa7;" d="M-55 -209q-10 26 12 35l274 115q19 9 27 -13q34 -110 127 -110h80q47 0 79 25t40 67q6 34 -14 60.5t-58 44t-87 37t-100 39t-98 51t-80.5 72.5t-47.5 103t1 144q21 131 97 207q18 15 8 32q-47 88 -27 209q33 187 173 294.5t343 107.5h35q202 0 299 -109q57 -67 84 -170 q6 -28 -18 -39l-281 -119q-12 -4 -20.5 0t-10.5 15q-22 123 -106 123h-35q-45 0 -78 -25t-39 -61q-5 -30 15 -57t57.5 -48t85.5 -45.5t98 -50.5t95.5 -63.5t78.5 -83t46.5 -110t-1.5 -144.5q-18 -113 -81 -195q-17 -23 -9 -39q30 -81 13 -180q-31 -176 -172 -284.5 t-338 -108.5h-84q-109 0 -184.5 31t-127.5 100q-39 53 -71 143zM406 465q-3 -15 1.5 -29t17.5 -26t27 -21.5t39 -20.5t43.5 -19t51.5 -21t53 -21q23 -10 29 8q4 5 8 23q3 17 -1 31.5t-17 28.5t-25.5 24t-38 23t-42 21t-50 23t-51.5 23q-23 10 -33 -8q-10 -26 -12 -39z" />
<glyph unicode="&#xa8;" horiz-adv-x="1107" d="M274 1284q12 68 71 115t128 47q71 0 113 -47t30 -115q-10 -66 -68.5 -112t-129.5 -46q-74 0 -115 44.5t-29 113.5zM696 1284q12 68 71.5 115t129.5 47t111.5 -46t29.5 -116q-12 -69 -68 -113.5t-128 -44.5q-74 0 -116 44.5t-30 113.5z" />
<glyph unicode="&#xa9;" horiz-adv-x="1589" d="M145 293l97 541q31 169 166.5 271.5t330.5 102.5h377q193 0 295.5 -102.5t71.5 -271.5l-97 -541q-31 -170 -167.5 -272.5t-329.5 -102.5h-377q-196 0 -297 102t-70 273zM348 293q-14 -79 39.5 -129.5t159.5 -50.5h377q105 0 173.5 50t82.5 130l96 541q14 79 -39 129.5 t-156 50.5h-376q-106 0 -176.5 -50.5t-84.5 -129.5zM500 475l32 182q22 121 121.5 197t237.5 76q145 0 213 -84q33 -42 49 -103q6 -17 -12 -24l-158 -66q-17 -7 -20 9q-10 43 -38 66.5t-63 23.5q-42 0 -78.5 -25t-42.5 -61l-34 -197q-6 -36 21 -61t69 -25q35 0 71 24.5 t62 67.5q9 14 24 8l133 -67q13 -7 5 -23q-44 -72 -101 -117q-93 -71 -227 -71q-139 0 -212.5 74.5t-51.5 195.5z" />
<glyph unicode="&#xaa;" horiz-adv-x="749" d="M92 821q0 41 8 80l29 154q24 130 108 197t216 67q99 0 155 -43q2 -3 6 -1.5t4 5.5l5 27q3 12 20 12h182q6 0 11 -4t4 -10l-119 -672q-3 -15 -16 -15h-199q-12 0 -12 13l4 24q1 6 -3 8.5t-12 0.5q-20 -19 -57.5 -32.5t-79.5 -13.5q-131 0 -192.5 48t-61.5 155zM383 872 q-3 -21 5 -29.5t36 -8.5q51 0 57 30l33 195q7 45 -43 45q-47 0 -53 -29z" />
<glyph unicode="&#xab;" horiz-adv-x="1280" d="M88 508l25 147q3 22 24 35l598 344q12 8 21 2.5t6 -18.5l-43 -238q-2 -11 4 -14.5t16 2.5l461 266q12 8 21 2.5t6 -18.5l-49 -279q-7 -24 -25 -32l-235 -109q-12 -6 -13.5 -16.5t8.5 -16.5l195 -108q17 -9 14 -33l-49 -279q-3 -14 -12.5 -18.5t-20.5 2.5l-368 266 q-7 5 -14.5 1.5t-8.5 -13.5l-41 -238q-3 -14 -12.5 -18.5t-20.5 2.5l-475 344q-15 9 -12 35zM439.5 581.5q-1.5 -10.5 9.5 -16.5l108 -59q10 -7 20 -1t11 23l20 107q3 18 -3.5 24.5t-18.5 -0.5l-133 -61q-12 -6 -13.5 -16.5z" />
<glyph unicode="&#xac;" d="M80 608l39 211q3 19 20 19h948q22 0 19 -19l-2 -2l-105 -594q-4 -18 -22 -18h-225q-11 0 -16 5t-3 13l62 346v2q5 19 -17 19h-682q-19 0 -16 18z" />
<glyph unicode="&#xad;" horiz-adv-x="647" d="M41 344l49 279q2 20 21 20h483q11 0 15 -4t3 -16l-49 -279q-5 -18 -24 -18h-484q-19 0 -14 18z" />
<glyph unicode="&#xae;" horiz-adv-x="1089" d="M211 901l6 41q23 157 153 252.5t316 95.5h8q184 0 277.5 -94.5t70.5 -253.5l-6 -41q-24 -158 -155 -253t-316 -95h-8q-184 0 -277.5 94t-68.5 254zM272 901q-21 -131 58 -210t237 -79h8q159 0 269.5 80t130.5 209l6 41q20 130 -59.5 209.5t-237.5 79.5h-8 q-159 0 -268 -79.5t-129 -209.5zM459 758l61 344q2 20 23 20h145q64 0 95 -35t22 -94l-2 -8q-7 -32 -30 -58.5t-50 -37.5q-14 -4 -8 -19l41 -104q5 -12 -2.5 -20.5t-22.5 -8.5h-37q-9 0 -12 13l-33 108q-3 12 -18 12h-62q-16 0 -22 -4.5t-8 -15.5l-17 -92q-3 -21 -22 -21 h-27q-17 0 -14 21zM557 948q-3 -11 1.5 -15.5t21.5 -4.5h73q73 0 86 65v6q5 31 -10.5 49.5t-50.5 18.5h-74q-28 0 -31 -23z" />
<glyph unicode="&#xaf;" horiz-adv-x="1107" d="M375 1159l45 262q3 21 24 21h584q19 0 16 -21l-45 -262q-3 -20 -24 -20h-584q-19 0 -16 20z" />
<glyph unicode="&#xb0;" horiz-adv-x="618" d="M135 918l31 178q17 98 95.5 160.5t184.5 62.5q114 0 172 -58t41 -155l-32 -188q-17 -97 -96 -155t-193 -58q-109 0 -164.5 58t-38.5 155zM328 918q-3 -19 9.5 -31.5t35.5 -12.5t40.5 12.5t20.5 31.5l33 188q3 19 -9.5 31t-35.5 12t-41 -12t-21 -31z" />
<glyph unicode="&#xb1;" d="M-16 18l36 207q3 21 23 21h948q20 0 17 -21l-37 -207q-3 -18 -25 -18h-948q-17 0 -14 18zM109 725l36 207q3 20 21 20h315q25 0 29 21l53 297q3 20 25 20h223q17 0 14 -20l-53 -297q-2 -9 4 -15t19 -6h319q22 0 19 -20l-37 -207q-3 -18 -25 -18h-319q-24 0 -31 -23 l-47 -276q-5 -19 -23 -19h-223q-21 0 -16 19l47 276q3 10 -4 16.5t-17 6.5h-315q-17 0 -14 18z" />
<glyph unicode="&#xb2;" horiz-adv-x="673" d="M70 532l24 130q13 70 38.5 122t52.5 81t68 49.5t71 28.5t75 15q30 5 46.5 9t34 15t20.5 26q4 18 -7 26t-28 8h-45q-36 0 -74 -55q-15 -22 -31 -12l-180 90q-10 2 0 22q60 90 127 132q80 53 191 53h53q131 0 200.5 -79.5t47.5 -203.5q-16 -94 -107 -153 q-48 -29 -105.5 -43.5t-99.5 -14.5q-32 0 -42.5 -4.5t-12.5 -15.5l-2 -13q-2 -5 1.5 -7.5t12.5 -2.5h283q13 0 10 -16l-33 -187q-3 -16 -16 -16h-561q-15 0 -12 16z" />
<glyph unicode="&#xb3;" horiz-adv-x="673" d="M25.5 640.5q0.5 8.5 7.5 12.5l215 90q15 10 24 -12q13 -39 29.5 -57.5t44.5 -18.5h23q51 0 55 37l6 43q2 15 -5 21t-36 6h-156q-14 0 -12 12l33 189q3 12 16 12h156q44 0 51 26l8 43q3 15 -5.5 24t-35.5 9h-22q-50 0 -103 -78q-17 -17 -28 -12l-182 90q-9 7 4 27 q58 85 118 133q90 70 215 70h37q140 0 211.5 -75.5t48.5 -199.5l-4 -22q-10 -62 -51 -109q-12 -9 -13 -13.5t7 -10.5q30 -40 10 -138l-8 -37q-28 -126 -122 -200t-232 -74h-37q-132 0 -199 76q-37 42 -65 125q-4 3 -3.5 11.5z" />
<glyph unicode="&#xb4;" horiz-adv-x="1107" d="M450.5 1115q-2.5 9 6.5 20l295 313q18 18 43 18h335q15 0 17.5 -11.5t-8.5 -20.5l-387 -310q-21 -18 -47 -18h-240q-12 0 -14.5 9z" />
<glyph unicode="&#xb5;" horiz-adv-x="1028" d="M-68 -307l220 1253q3 21 22 21h299q19 0 16 -21l-102 -584q-6 -38 16 -59.5t70 -21.5q50 0 82.5 22.5t38.5 58.5l102 584q3 21 23 21h301q17 0 14 -21l-162 -928q-3 -18 -22 -18h-219q-9 0 -16 6t-5 12l8 50q1 8 -5.5 9.5t-12.5 -3.5q-100 -74 -235 -74q-43 0 -48 -37 l-47 -270q-3 -21 -22 -21h-299q-20 0 -17 21z" />
<glyph unicode="&#xb6;" horiz-adv-x="1449" d="M98 545l60 342q32 186 173.5 295.5t342.5 109.5h788q20 0 17 -20l-303 -1712q-3 -21 -23 -21h-303q-19 0 -16 21l247 1409q6 22 -20 22h-94q-25 0 -31 -22l-248 -1409q-3 -21 -22 -21h-301q-20 0 -17 21l103 581q3 21 -21 21h-33q-125 0 -200 50t-97 134t-2 199z" />
<glyph unicode="&#xb7;" d="M373 510q13 71 77 120.5t140 49.5q70 0 117.5 -51.5t35.5 -118.5q-12 -68 -76.5 -118t-136.5 -50q-76 0 -122.5 48.5t-34.5 119.5z" />
<glyph unicode="&#xb8;" horiz-adv-x="1107" d="M100 -465l31 178q7 23 29 23h133q34 0 37 24q6 25 -29 25h-111q-11 0 -14 8t4 17l142 219h288l-47 -76q-12 -20 0 -25q39 -20 56.5 -61.5t9.5 -91.5l-4 -15q-19 -107 -109.5 -176t-220.5 -69h-178q-19 0 -17 20z" />
<glyph unicode="&#xb9;" horiz-adv-x="673" d="M63 526l37 209q3 13 15 13h123q17 0 20 14l14 88q1 4 -4 6t-12 2q-12 0 -18 4l-125 131q-15 9 2 19l319 248q17 10 29 10h135q13 0 10 -15l-86 -493q-2 -8 1.5 -11t15.5 -3h123q13 0 10 -13l-37 -209q-2 -12 -14 -12h-547q-13 0 -11 12z" />
<glyph unicode="&#xba;" horiz-adv-x="700" d="M111 870l26 166q20 123 123.5 203t245.5 80q135 0 204.5 -79.5t49.5 -203.5l-27 -166q-20 -125 -118.5 -203.5t-237.5 -78.5q-144 0 -215.5 78t-50.5 204zM371 870q-3 -19 9 -34t38 -15q20 0 38 16t21 33l27 166q3 18 -7.5 31.5t-31.5 13.5q-27 0 -46.5 -15t-21.5 -30z " />
<glyph unicode="&#xbb;" horiz-adv-x="1280" d="M96 145l49 279q4 25 23 33l235 108q11 6 13.5 16.5t-8.5 16.5l-195 109q-19 9 -12 32l49 279q3 14 11.5 18.5t19.5 -2.5l366 -266q9 -6 16 -2.5t9 14.5l43 238q3 14 11 18.5t19 -2.5l476 -344q15 -9 12 -35l-25 -147q-3 -22 -24 -35l-598 -344q-12 -8 -20 -2.5t-5 18.5 l41 238q1 10 -4 13.5t-14 -1.5l-463 -266q-12 -8 -20 -2.5t-5 18.5zM713 528q-1 -17 5.5 -22.5t20.5 0.5l129 59q12 6 14 16.5t-10 16.5l-108 61q-25 14 -31 -24z" />
<glyph unicode="&#xbc;" horiz-adv-x="1732" d="M127 526l37 209q3 13 14 13h123q18 0 21 14l14 88q1 4 -4.5 6t-12.5 2q-12 0 -18 4l-127 131q-14 10 4 19l320 248q17 10 28 10h136q13 0 10 -15l-86 -493q-2 -8 1 -11t15 -3h123q13 0 10 -13l-37 -209q-2 -12 -14 -12h-547q-12 0 -10 12zM401 9q-4 9 2 20l814 1243 q13 20 36 20h162q15 0 19 -8t-4 -20l-814 -1244q-13 -20 -34 -20h-166q-11 0 -15 9zM848 63l31 168l464 496q7 10 25 10h195q10 0 8 -12l-76 -428q0 -14 14 -14h84q6 0 9.5 -4t1.5 -9l-37 -207q0 -12 -15 -12h-84q-15 0 -18 -16l-23 -127q-2 -12 -12 -12h-237q-13 0 -11 12 l23 127q2 6 -2 11t-10 5h-320q-10 0 -10 12zM1159 266q-10 -10 4 -10h72q12 0 16 8l19 105q6 41 12 61l-6 2q-10 -19 -43 -65z" />
<glyph unicode="&#xbd;" horiz-adv-x="1732" d="M127 526l37 209q3 13 14 13h123q18 0 21 14l14 88q1 4 -4.5 6t-12.5 2q-12 0 -18 4l-125 131q-15 9 2 19l320 248q17 10 28 10h136q13 0 10 -15l-86 -493q-2 -8 1 -11t15 -3h123q13 0 10 -13l-37 -209q-2 -12 -14 -12h-547q-12 0 -10 12zM401 9q-4 9 2 20l816 1243 q10 20 34 20h162q15 0 19 -8t-4 -20l-814 -1244q-13 -20 -34 -20h-166q-11 0 -15 9zM965 16l24 129q13 70 38.5 122t52.5 81.5t68 50t71 28.5t75 15q30 5 46.5 9t34 15t20.5 26q4 18 -7 26t-28 8h-45q-36 0 -74 -55q-15 -22 -31 -12l-180 90q-10 2 0 22q59 88 127 131 q82 54 191 54h53q131 0 200.5 -79.5t47.5 -203.5q-16 -95 -107 -154q-48 -29 -105 -43t-100 -14q-32 0 -42.5 -4.5t-12.5 -15.5l-2 -13q-2 -5 1.5 -7.5t12.5 -2.5h283q13 0 10 -16l-33 -187q-3 -16 -16 -16h-561q-15 0 -12 16z" />
<glyph unicode="&#xbe;" horiz-adv-x="1732" d="M56 640q1 9 10 13l213 90q12 3 14.5 1t11.5 -13q11 -39 27.5 -57.5t44.5 -18.5h22q49 0 56 37l8 43q3 14 -6.5 20.5t-38.5 6.5h-156q-14 0 -12 12l33 187q3 12 16 12h156q49 0 55 26l6 45q2 16 -7 24.5t-36 8.5h-22q-27 0 -49.5 -19t-49.5 -59q-21 -17 -28 -12l-185 90 q-13 10 4 27q51 75 103 119q97 84 233 84h35q140 0 211.5 -75.5t48.5 -199.5l-4 -22q-10 -63 -53 -109q-10 -8 -10.5 -13.5t6.5 -10.5q27 -39 10 -138l-6 -37q-22 -125 -120.5 -199.5t-238.5 -74.5h-34q-134 0 -197 74q-41 43 -68 127q-4 2 -3 11zM404 9q-4 9 2 20l813 1243 q13 20 36 20h162q15 0 18 -8t-5 -20l-814 -1244q-13 -20 -32 -20h-166q-10 0 -14 9zM850 63l29 168l464 496q10 10 27 10h195q10 0 8 -12l-76 -428q0 -14 14 -14h84q11 0 11 -13l-37 -207q-3 -12 -15 -12h-84q-15 0 -18 -16l-22 -127q-2 -12 -13 -12h-237q-13 0 -11 12 l23 127q0 16 -12 16h-320q-13 0 -10 12zM1159 266q-7 -10 6 -10h72q14 0 14 8l19 105q4 28 14 61l-6 2q-10 -19 -43 -65z" />
<glyph unicode="&#xbf;" horiz-adv-x="1085" d="M18 55q37 210 218 293q34 16 86.5 33.5t83 28.5t56.5 33t32 53l14 75q3 23 29 23h256q31 0 26 -33l-20 -110q-19 -95 -70.5 -150.5t-130.5 -93.5q-26 -12 -79 -32t-78 -31.5t-50.5 -35t-30.5 -53.5q-6 -36 19 -61t67 -25h76q39 0 82.5 27t69.5 70q24 43 55 28l205 -106 q30 -17 4 -58q-63 -96 -133 -149q-138 -111 -336 -111h-76q-197 0 -300.5 107t-74.5 278zM522 821q12 67 78.5 119.5t136.5 52.5q75 0 121.5 -51.5t34.5 -120.5q-12 -70 -76.5 -120t-140.5 -50q-70 0 -118 52.5t-36 117.5z" />
<glyph unicode="&#xc0;" horiz-adv-x="1073" d="M-101.5 7.5q-4.5 7.5 1.5 19.5l649 1251q8 14 22 14h224q14 0 16 -14l207 -1251q2 -14 -2.5 -20.5t-20.5 -6.5h-321q-14 0 -17 14l-26 154q0 14 -23 14h-246q-20 0 -28 -14l-82 -154q-6 -14 -21 -14h-315q-13 0 -17.5 7.5zM307.5 1733q7.5 12 22.5 12h336q24 0 34 -19 l172 -272q6 -10 0 -19.5t-18 -9.5h-240q-22 0 -41 19l-264 268q-9 9 -1.5 21zM453 442q-7 -18 18 -18h119q20 0 20 18l-4 160q-2 63 -0.5 119t4.5 95l2 38h-6q-39 -131 -88 -252z" />
<glyph unicode="&#xc1;" horiz-adv-x="1073" d="M-101.5 7.5q-4.5 7.5 1.5 19.5l649 1251q8 14 22 14h224q14 0 16 -14l207 -1251q2 -14 -2.5 -20.5t-20.5 -6.5h-321q-14 0 -17 14l-26 154q0 14 -23 14h-246q-20 0 -28 -14l-82 -154q-6 -14 -21 -14h-315q-13 0 -17.5 7.5zM453 442q-7 -18 18 -18h119q20 0 20 18l-4 160 q-2 63 -0.5 119t4.5 95l2 38h-6q-39 -131 -88 -252zM536.5 1440.5q1.5 6.5 8.5 13.5l266 272q19 19 43 19h336q15 0 17 -12t-9 -21l-358 -268q-25 -19 -49 -19h-240q-8 0 -12 4.5t-2.5 11z" />
<glyph unicode="&#xc2;" horiz-adv-x="1073" d="M-101.5 7.5q-4.5 7.5 1.5 19.5l649 1251q8 14 22 14h224q14 0 16 -14l207 -1251q2 -14 -2.5 -20.5t-20.5 -6.5h-321q-14 0 -17 14l-26 154q0 14 -23 14h-246q-20 0 -28 -14l-82 -154q-6 -14 -21 -14h-315q-13 0 -17.5 7.5zM363.5 1420.5q-1.5 9.5 7.5 19.5l295 313 q16 19 43 19h110q25 0 35 -19l184 -313q6 -10 0 -19.5t-18 -9.5h-213q-26 0 -35 25l-33 75q-6 13 -20.5 13t-24.5 -13l-57 -75q-19 -25 -47 -25h-213q-12 0 -13.5 9.5zM453 442q-7 -18 18 -18h119q20 0 20 18l-4 160q-2 63 -0.5 119t4.5 95l2 38h-6q-39 -131 -88 -252z" />
<glyph unicode="&#xc3;" horiz-adv-x="1073" d="M-101.5 7.5q-4.5 7.5 1.5 19.5l649 1251q8 14 22 14h224q14 0 16 -14l207 -1251q2 -14 -2.5 -20.5t-20.5 -6.5h-321q-14 0 -17 14l-26 154q0 14 -23 14h-246q-20 0 -28 -14l-82 -154q-6 -14 -21 -14h-315q-13 0 -17.5 7.5zM356 1550q126 181 289 181q39 0 69.5 -10 t46 -22t35 -22t38.5 -10q59 0 102 51q11 14 17.5 15.5t15.5 -7.5l114 -104q16 -12 4 -31q-121 -164 -296 -164q-43 0 -77.5 17.5t-61.5 35t-50 17.5q-52 0 -88 -47q-20 -26 -39 -10l-117 86q-11 8 -2 24zM453 442q-7 -18 18 -18h119q20 0 20 18l-4 160q-2 63 -0.5 119 t4.5 95l2 38h-6q-39 -131 -88 -252z" />
<glyph unicode="&#xc4;" horiz-adv-x="1073" d="M-101.5 7.5q-4.5 7.5 1.5 19.5l649 1251q8 14 22 14h224q14 0 16 -14l207 -1251q2 -14 -2.5 -20.5t-20.5 -6.5h-321q-14 0 -17 14l-26 154q0 14 -23 14h-246q-20 0 -28 -14l-82 -154q-6 -14 -21 -14h-315q-13 0 -17.5 7.5zM377 1579q10 64 62 107t114 43q60 0 95.5 -44.5 t25.5 -105.5q-12 -63 -62 -104t-112 -41t-97.5 41.5t-25.5 103.5zM453 442q-7 -18 18 -18h119q20 0 20 18l-4 160q-2 63 -0.5 119t4.5 95l2 38h-6q-39 -131 -88 -252zM774 1579q11 63 61 106.5t113 43.5q60 0 96.5 -44.5t26.5 -105.5q-12 -62 -63 -103.5t-113 -41.5 t-96.5 42t-24.5 103z" />
<glyph unicode="&#xc5;" horiz-adv-x="1073" d="M-101.5 7.5q-4.5 7.5 1.5 19.5l587 1132q11 20 -4 35q-67 64 -49 174l10 59q19 103 102.5 166.5t201.5 63.5q119 0 179.5 -63t41.5 -167l-11 -59q-17 -111 -110 -174q-23 -13 -19 -31l189 -1136q2 -14 -2.5 -20.5t-20.5 -6.5h-321q-14 0 -17 14l-26 154q0 14 -23 14h-246 q-20 0 -28 -14l-82 -154q-6 -14 -21 -14h-315q-13 0 -17.5 7.5zM453 442q-7 -18 18 -18h119q20 0 20 18l-4 160q-2 63 -0.5 119t4.5 95l2 38h-6q-39 -131 -88 -252zM649 1368q-3 -18 7.5 -28.5t31.5 -10.5q20 0 35 11t18 28l11 59q3 19 -7 31t-30 12q-21 0 -37 -12.5 t-19 -30.5z" />
<glyph unicode="&#xc6;" horiz-adv-x="1482" d="M-295 9.5q-4 9.5 6 21.5l1034 1245q13 16 39 16h785q21 0 18 -20l-47 -262q-3 -19 -24 -19h-504q-23 0 -29 -22l-25 -142q-3 -22 21 -22h414q21 0 18 -19l-47 -264q-3 -18 -25 -18h-413q-22 0 -29 -23l-27 -157q-3 -23 21 -23h504q21 0 16 -18l-45 -263q-2 -20 -25 -20 h-852q-17 0 -14 20l39 218q2 11 -4 16.5t-23 5.5h-188q-23 0 -37 -20l-182 -224q-13 -16 -39 -16h-317q-15 0 -19 9.5zM467 527q2 -7 14 -7h66q15 0 22 21l21 127q4 23 12.5 57t15.5 57l7 23h-7q-40 -84 -67 -129l-80 -133q-6 -9 -4 -16z" />
<glyph unicode="&#xc7;" horiz-adv-x="1099" d="M51 358l101 576q31 175 169 280t345 105h141q105 0 177.5 -30t123.5 -95q49 -62 78 -150q14 -27 -10 -38l-275 -117q-14 -5 -24 0t-13 16q-45 115 -129 115h-123q-52 0 -85.5 -23.5t-39.5 -62.5l-100 -576q-6 -39 18 -62.5t74 -23.5h123q88 0 170 115q20 28 43 16 l234 -116q19 -10 -5 -39q-71 -102 -145 -162q-114 -96 -264 -111q-26 -2 -39 -22q-12 -19 0 -25q40 -20 57 -61t9 -92l-5 -15q-19 -108 -109 -176.5t-220 -68.5h-178q-20 0 -17 20l31 178q7 23 29 23h133q33 0 36 24q3 13 -4 19t-24 6h-111q-23 0 -10 25l94 147q15 24 -4 29 q-146 31 -212 128.5t-40 243.5z" />
<glyph unicode="&#xc8;" horiz-adv-x="1015" d="M39 381l10 57q27 153 125 224q20 14 6 30q-33 33 -47.5 83.5t-5.5 103.5l6 34q32 185 173.5 295.5t344.5 110.5h60q183 0 278 -98q61 -64 101 -177q10 -29 -11 -38l-274 -117q-14 -5 -24 0t-13 16q-23 58 -53 86.5t-74 28.5h-43q-51 0 -84 -24t-39 -62l-6 -37 q-6 -36 17 -59t75 -23h219q10 0 15 -4t4 -14l-47 -265q-3 -18 -25 -18h-219q-54 0 -84.5 -22t-36.5 -60l-12 -67q-8 -40 15.5 -66.5t74.5 -26.5h43q86 0 168 115q20 28 43 16l233 -116q19 -11 -4 -39q-86 -121 -176 -187q-124 -88 -299 -88h-59q-205 0 -307 110.5t-68 297.5 zM291 1733q7 12 22 12h336q25 0 35 -19l172 -272q6 -10 0 -19.5t-18 -9.5h-240q-22 0 -41 19l-264 268q-9 9 -2 21z" />
<glyph unicode="&#xc9;" horiz-adv-x="1015" d="M39 381l10 57q27 153 125 224q20 14 6 30q-33 33 -47.5 83.5t-5.5 103.5l6 34q32 185 173.5 295.5t344.5 110.5h60q183 0 278 -98q61 -64 101 -177q10 -29 -11 -38l-274 -117q-14 -5 -24 0t-13 16q-23 58 -53 86.5t-74 28.5h-43q-51 0 -84 -24t-39 -62l-6 -37 q-6 -36 17 -59t75 -23h219q10 0 15 -4t4 -14l-47 -265q-3 -18 -25 -18h-219q-54 0 -84.5 -22t-36.5 -60l-12 -67q-8 -40 15.5 -66.5t74.5 -26.5h43q86 0 168 115q20 28 43 16l233 -116q19 -11 -4 -39q-70 -97 -139 -158q-140 -117 -336 -117h-59q-205 0 -307 110.5 t-68 297.5zM520.5 1434.5q-2.5 9.5 7.5 19.5l267 272q19 19 43 19h336q15 0 17 -12t-9 -21l-359 -268q-25 -19 -49 -19h-239q-12 0 -14.5 9.5z" />
<glyph unicode="&#xca;" horiz-adv-x="1015" d="M39 381l10 57q27 153 125 224q20 14 6 30q-33 33 -47.5 83.5t-5.5 103.5l6 34q32 185 173.5 295.5t344.5 110.5h60q189 0 282 -102q57 -62 97 -173q10 -29 -11 -38l-274 -117q-14 -5 -24 0t-13 16q-23 58 -53 86.5t-74 28.5h-43q-51 0 -84 -24t-39 -62l-6 -37 q-6 -36 17 -59t75 -23h219q10 0 15 -4t4 -14l-47 -265q-3 -18 -25 -18h-219q-54 0 -84.5 -22t-36.5 -60l-12 -67q-8 -40 15.5 -66.5t74.5 -26.5h43q86 0 168 115q20 28 43 16l233 -116q19 -11 -4 -39q-70 -97 -139 -158q-140 -117 -336 -117h-59q-205 0 -307 110.5 t-68 297.5zM346.5 1420.5q-1.5 9.5 7.5 19.5l295 313q16 19 43 19h111q25 0 35 -19l184 -313q6 -10 0 -19.5t-18 -9.5h-213q-26 0 -35 25l-33 75q-6 13 -20.5 13t-24.5 -13l-57 -75q-19 -25 -48 -25h-213q-12 0 -13.5 9.5z" />
<glyph unicode="&#xcb;" horiz-adv-x="1015" d="M39 381l10 57q27 153 125 224q20 14 6 30q-33 33 -47.5 83.5t-5.5 103.5l6 34q32 185 173.5 295.5t344.5 110.5h60q189 0 282 -102q57 -62 97 -173q10 -29 -11 -38l-274 -117q-14 -5 -24 0t-13 16q-23 58 -53 86.5t-74 28.5h-43q-51 0 -84 -24t-39 -62l-6 -37 q-6 -36 17 -59t75 -23h219q10 0 15 -4t4 -14l-47 -265q-3 -18 -25 -18h-219q-54 0 -84.5 -22t-36.5 -60l-12 -67q-8 -40 15.5 -66.5t74.5 -26.5h43q86 0 168 115q20 28 43 16l233 -116q19 -11 -4 -39q-80 -112 -162 -176q-131 -99 -313 -99h-59q-205 0 -307 110.5t-68 297.5 zM362 1579q10 64 62.5 107t114.5 43q60 0 95.5 -44t24.5 -106q-12 -63 -62 -104t-112 -41t-97.5 41.5t-25.5 103.5zM760 1579q11 63 61 106.5t113 43.5q60 0 96.5 -44.5t26.5 -105.5q-12 -62 -63 -103.5t-113 -41.5t-96.5 42t-24.5 103z" />
<glyph unicode="&#xcc;" horiz-adv-x="542" d="M23 20l221 1252q2 20 20 20h301q8 0 15 -4.5t6 -15.5l-221 -1252q-3 -20 -27 -20h-301q-17 0 -14 20zM39 1733q7 12 22 12h336q25 0 35 -19l172 -272q6 -10 0 -19.5t-18 -9.5h-240q-22 0 -41 19l-264 268q-9 9 -2 21z" />
<glyph unicode="&#xcd;" horiz-adv-x="542" d="M23 20l221 1252q2 20 20 20h301q8 0 15 -4.5t6 -15.5l-221 -1252q-3 -20 -27 -20h-301q-17 0 -14 20zM268.5 1434.5q-2.5 9.5 7.5 19.5l267 272q19 19 43 19h336q15 0 17 -12t-9 -21l-359 -268q-25 -19 -49 -19h-239q-12 0 -14.5 9.5z" />
<glyph unicode="&#xce;" horiz-adv-x="542" d="M23 20l221 1252q2 20 20 20h301q8 0 15 -4.5t6 -15.5l-221 -1252q-3 -20 -27 -20h-301q-17 0 -14 20zM95 1420.5q-2 9.5 7 19.5l295 313q16 19 43 19h111q25 0 35 -19l184 -313q6 -10 0 -19.5t-18 -9.5h-213q-26 0 -35 25l-33 75q-6 13 -20.5 13t-24.5 -13l-57 -75 q-19 -25 -47 -25h-213q-12 0 -14 9.5z" />
<glyph unicode="&#xcf;" horiz-adv-x="542" d="M23 20l221 1252q2 20 20 20h301q8 0 15 -4.5t6 -15.5l-221 -1252q-3 -20 -27 -20h-301q-17 0 -14 20zM111 1579q10 64 62 107t114 43q60 0 95.5 -44.5t25.5 -105.5q-12 -62 -62.5 -103.5t-112.5 -41.5t-97 41t-25 104zM508 1579q11 63 61 106.5t113 43.5q60 0 96.5 -44.5 t26.5 -105.5q-12 -62 -63 -103.5t-113 -41.5t-96.5 42t-24.5 103z" />
<glyph unicode="&#xd0;" horiz-adv-x="1200" d="M-20 506l49 280q3 19 20 19h84q26 0 31 24l80 443q2 20 20 20h572q203 0 301.5 -108t66.5 -297l-84 -486q-32 -185 -171 -293t-341 -108h-571q-17 0 -14 20l77 445q3 22 -22 22h-84q-19 0 -14 19zM418 324q-2 -12 2 -17.5t18 -5.5h224q42 0 76 25.5t40 58.5l92 520 q6 32 -20 59t-68 27h-223q-23 0 -29 -22l-22 -135q-6 -29 20 -29h138q21 0 18 -19l-49 -280q-5 -19 -25 -19h-137q-28 0 -31 -24z" />
<glyph unicode="&#xd1;" horiz-adv-x="1177" d="M23 20l221 1252q2 20 20 20h260q19 0 25 -18l201 -578q8 -24 14.5 -48.5t9.5 -37.5l2 -12h6q19 160 52 342l59 332q1 12 6 16t14 4h289q8 0 14 -4.5t5 -15.5l-222 -1252q-3 -20 -24 -20h-256q-15 0 -19 18l-206 566l-27 92h-8q-16 -162 -45 -330l-58 -326q-2 -20 -24 -20 h-295q-17 0 -14 20zM401 1550q126 181 289 181q39 0 69.5 -10t46 -22t35 -22t38.5 -10q59 0 102 51q11 14 17.5 15.5t15.5 -7.5l114 -104q17 -13 5 -31q-121 -164 -297 -164q-43 0 -77.5 17.5t-61.5 35t-50 17.5q-52 0 -88 -47q-20 -26 -39 -10l-117 86q-11 8 -2 24z" />
<glyph unicode="&#xd2;" horiz-adv-x="1167" d="M51 358l101 576q31 173 173 279t341 106h143q197 0 299.5 -105.5t71.5 -279.5l-101 -576q-31 -173 -171 -279t-337 -106h-143q-200 0 -304 106t-73 279zM352.5 1733q7.5 12 22.5 12h336q25 0 34 -19l173 -272q6 -10 -0.5 -19.5t-18.5 -9.5h-240q-22 0 -41 19l-264 268 q-9 9 -1.5 21zM387 358q-6 -39 17.5 -61.5t76.5 -22.5h144q46 0 77 23.5t37 60.5l101 576q6 37 -17 61.5t-67 24.5h-144q-45 0 -82 -26.5t-43 -59.5z" />
<glyph unicode="&#xd3;" horiz-adv-x="1167" d="M51 358l101 576q31 173 173 279t341 106h143q197 0 299.5 -105.5t71.5 -279.5l-101 -576q-31 -173 -171 -279t-337 -106h-143q-200 0 -304 106t-73 279zM387 358q-6 -39 17.5 -61.5t76.5 -22.5h144q46 0 77 23.5t37 60.5l101 576q6 37 -17 61.5t-67 24.5h-144 q-45 0 -82 -26.5t-43 -59.5zM581.5 1440.5q1.5 6.5 8.5 13.5l266 272q19 19 43 19h336q15 0 17 -12t-9 -21l-358 -268q-25 -19 -49 -19h-240q-8 0 -12 4.5t-2.5 11z" />
<glyph unicode="&#xd4;" horiz-adv-x="1167" d="M51 358l101 576q31 173 173 279t341 106h143q197 0 299.5 -105.5t71.5 -279.5l-101 -576q-31 -173 -171 -279t-337 -106h-143q-200 0 -304 106t-73 279zM387 358q-6 -39 17.5 -61.5t76.5 -22.5h144q46 0 77 23.5t37 60.5l101 576q6 37 -17 61.5t-67 24.5h-144 q-45 0 -82 -26.5t-43 -59.5zM408.5 1420.5q-1.5 9.5 7.5 19.5l295 313q16 19 43 19h110q26 0 35 -19l184 -313q6 -10 0 -19.5t-18 -9.5h-213q-26 0 -35 25l-33 75q-6 13 -20 13t-25 -13l-57 -75q-19 -25 -47 -25h-213q-12 0 -13.5 9.5z" />
<glyph unicode="&#xd5;" horiz-adv-x="1167" d="M51 358l101 576q31 173 173 279t341 106h143q197 0 299.5 -105.5t71.5 -279.5l-101 -576q-31 -173 -171 -279t-337 -106h-143q-200 0 -304 106t-73 279zM387 358q-6 -39 17.5 -61.5t76.5 -22.5h144q46 0 77 23.5t37 60.5l101 576q6 37 -17 61.5t-67 24.5h-144 q-45 0 -82 -26.5t-43 -59.5zM401 1550q126 181 289 181q39 0 69.5 -10t46 -22t35 -22t38.5 -10q59 0 102 51q11 14 17.5 15.5t15.5 -7.5l114 -104q17 -13 5 -31q-121 -164 -297 -164q-43 0 -77.5 17.5t-61.5 35t-50 17.5q-52 0 -88 -47q-20 -26 -39 -10l-117 86q-11 8 -2 24 z" />
<glyph unicode="&#xd6;" horiz-adv-x="1167" d="M51 358l101 576q31 173 173 279t341 106h143q197 0 299.5 -105.5t71.5 -279.5l-101 -576q-31 -173 -171 -279t-337 -106h-143q-200 0 -304 106t-73 279zM387 358q-6 -39 17.5 -61.5t76.5 -22.5h144q46 0 77 23.5t37 60.5l101 576q6 37 -17 61.5t-67 24.5h-144 q-45 0 -82 -26.5t-43 -59.5zM424 1579q10 64 62 107t114 43q60 0 95.5 -44.5t25.5 -105.5q-12 -63 -62 -104t-112 -41t-97.5 41.5t-25.5 103.5zM821 1579q11 63 61 106.5t113 43.5q60 0 96.5 -44.5t26.5 -105.5q-12 -62 -63 -103.5t-113 -41.5t-96.5 42t-24.5 103z" />
<glyph unicode="&#xd7;" d="M55 205q-15 15 4 26l308 263q23 18 8 32l-209 254q-10 13 6 29l154 131q13 13 26 -2l209 -254q11 -14 35 4l319 273q17 14 29 0l121 -148q11 -11 -6 -27l-322 -270q-23 -17 -8 -35l209 -254q10 -12 -4 -26l-146 -125q-17 -13 -28 -2l-207 254q-17 16 -35 -2l-317 -269 q-16 -12 -25 0z" />
<glyph unicode="&#xd8;" horiz-adv-x="1167" d="M51 358l101 576q31 173 173 279t341 106h143q197 0 299.5 -105.5t71.5 -279.5l-101 -576q-31 -173 -171 -279t-337 -106h-143q-200 0 -304 106t-73 279zM418 530q-2 -9 5 -11t11 7l291 471q6 9 4 16t-12 7h-105q-45 0 -82 -26.5t-43 -59.5zM505 281q3 -7 15 -7h105 q46 0 77 23.5t37 60.5l70 398q1 10 -5.5 11.5t-12.5 -7.5l-283 -461q-6 -11 -3 -18z" />
<glyph unicode="&#xd9;" horiz-adv-x="1206" d="M72 358l161 914q3 20 21 20h297q19 0 16 -20l-161 -914q-6 -40 16.5 -62t77.5 -22h143q104 0 117 84l162 914q2 20 20 20h301q11 0 14.5 -4t2.5 -16l-162 -914q-31 -173 -171 -279t-337 -106h-144q-199 0 -302 106t-72 279zM369 1733q7 12 22 12h336q25 0 35 -19 l172 -272q7 -10 0.5 -19.5t-19.5 -9.5h-239q-22 0 -41 19l-264 268q-9 9 -2 21z" />
<glyph unicode="&#xda;" horiz-adv-x="1206" d="M72 358l161 914q3 20 21 20h297q19 0 16 -20l-161 -914q-6 -40 16.5 -62t77.5 -22h143q104 0 117 84l162 914q2 20 20 20h301q11 0 14.5 -4t2.5 -16l-162 -914q-31 -173 -171 -279t-337 -106h-144q-199 0 -302 106t-72 279zM597.5 1440.5q1.5 6.5 8.5 13.5l266 272 q19 19 43 19h336q15 0 17.5 -12t-8.5 -21l-359 -268q-25 -19 -49 -19h-240q-8 0 -12 4.5t-2.5 11z" />
<glyph unicode="&#xdb;" horiz-adv-x="1206" d="M72 358l161 914q3 20 21 20h297q19 0 16 -20l-161 -914q-6 -40 16.5 -62t77.5 -22h143q104 0 117 84l162 914q2 20 20 20h301q11 0 14.5 -4t2.5 -16l-162 -914q-31 -173 -171 -279t-337 -106h-144q-199 0 -302 106t-72 279zM424.5 1420.5q-1.5 9.5 7.5 19.5l295 313 q16 19 43 19h111q25 0 34 -19l185 -313q6 -10 -0.5 -19.5t-18.5 -9.5h-213q-25 0 -34 25l-33 75q-6 13 -20.5 13t-24.5 -13l-58 -75q-19 -25 -47 -25h-213q-12 0 -13.5 9.5z" />
<glyph unicode="&#xdc;" horiz-adv-x="1206" d="M72 358l161 914q3 20 21 20h297q19 0 16 -20l-161 -914q-6 -40 16.5 -62t77.5 -22h143q104 0 117 84l162 914q2 20 20 20h301q11 0 14.5 -4t2.5 -16l-162 -914q-31 -173 -171 -279t-337 -106h-144q-199 0 -302 106t-72 279zM440 1579q10 64 62 107t114 43 q60 0 95.5 -44.5t25.5 -105.5q-12 -63 -62 -104t-112 -41t-97.5 41.5t-25.5 103.5zM838 1579q11 63 61 106.5t113 43.5q60 0 96.5 -44.5t26.5 -105.5q-12 -62 -63.5 -103.5t-113.5 -41.5q-61 0 -96 41.5t-24 103.5z" />
<glyph unicode="&#xdd;" horiz-adv-x="1003" d="M68 1262q-4 12 2 21t18 9h342q22 0 31 -20l110 -299q5 -13 17 -13t22 13l224 299q14 20 34 20h338q17 0 20 -9t-7 -21l-527 -682l-98 -560q-2 -20 -25 -20h-299q-9 0 -12 4t-2 16l98 560zM515.5 1440.5q1.5 6.5 8.5 13.5l267 272q19 19 43 19h335q15 0 17.5 -12t-8.5 -21 l-359 -268q-25 -19 -49 -19h-240q-8 0 -12 4.5t-2.5 11z" />
<glyph unicode="&#xde;" horiz-adv-x="1056" d="M23 20l221 1252q2 20 20 20h301q8 0 15 -4.5t6 -15.5l-37 -199q-5 -26 22 -26h140q203 0 304.5 -97t69.5 -276l-14 -82q-27 -154 -165 -244t-335 -90h-141q-23 0 -29 -22l-36 -216q-3 -20 -25 -20h-303q-17 0 -14 20zM463 582q-3 -23 20 -23h142q47 0 77.5 19t36.5 53 l9 41q6 32 -18.5 52.5t-72.5 20.5h-141q-26 0 -29 -22z" />
<glyph unicode="&#xdf;" horiz-adv-x="1069" d="M-330 -436l107 237q8 16 33 13q52 -9 96 -9q50 0 82.5 27t40.5 72l178 1009q14 81 55 152t106 126.5t159 87.5t206 32q203 0 295.5 -109.5t61.5 -296.5l-7 -37q-10 -64 -42.5 -118t-75.5 -86q-24 -20 -7 -37q29 -29 43.5 -83t4.5 -116l-9 -47q-12 -72 -36 -130.5 t-67 -110.5t-102.5 -87t-145.5 -55.5t-193 -20.5q-13 0 -18 4.5t-3 16.5l45 262q7 25 27 25q76 0 110 22.5t43 77.5l11 57q11 58 -15 82.5t-102 24.5q-13 0 -19 5.5t-4 16.5l37 203q6 27 29 27q134 0 151 86l9 39q8 39 -15.5 62.5t-70.5 23.5q-52 0 -84.5 -23.5t-38.5 -62.5 l-164 -928q-39 -224 -184 -351.5t-349 -127.5q-93 0 -163 16q-22 5 -15 29z" />
<glyph unicode="&#xe0;" horiz-adv-x="1028" d="M41 385l39 219q30 175 147 269t299 94q137 0 211 -74q3 -3 7.5 -4t8.5 1.5t5 8.5l10 49q0 6 8 12.5t17 6.5h217q21 0 18 -19l-164 -928q-2 -20 -22 -20h-234q-18 0 -18 16l10 50q2 9 -5.5 12t-16.5 -4q-84 -74 -203 -74q-203 0 -286 93.5t-48 291.5zM209.5 1454.5 q6.5 11.5 21.5 11.5h336q26 0 35 -18l184 -313q6 -11 1 -20t-17 -9h-240q-25 0 -43 18l-276 310q-8 9 -1.5 20.5zM377 344q-6 -39 16.5 -61.5t69.5 -22.5q48 0 81.5 23t39.5 61l49 281q6 36 -18 59t-72 23q-49 0 -80 -22.5t-37 -59.5z" />
<glyph unicode="&#xe1;" horiz-adv-x="1028" d="M41 385l39 219q30 175 147 269t299 94q137 0 211 -74q3 -3 7.5 -4t8.5 1.5t5 8.5l10 49q0 6 8 12.5t17 6.5h217q21 0 18 -19l-164 -928q-2 -20 -22 -20h-234q-18 0 -18 16l10 50q2 9 -5.5 12t-16.5 -4q-84 -74 -203 -74q-203 0 -286 93.5t-48 291.5zM377 344 q-6 -39 16.5 -61.5t69.5 -22.5q48 0 81.5 23t39.5 61l49 281q6 36 -18 59t-72 23q-49 0 -80 -22.5t-37 -59.5zM427.5 1115q-2.5 9 6.5 20l295 313q18 18 43 18h336q15 0 17 -11.5t-9 -20.5l-387 -310q-21 -18 -47 -18h-240q-12 0 -14.5 9z" />
<glyph unicode="&#xe2;" horiz-adv-x="1028" d="M41 385l39 219q30 175 147 269t299 94q137 0 211 -74q3 -3 7.5 -4t8.5 1.5t5 8.5l10 49q0 6 8 12.5t17 6.5h217q21 0 18 -19l-164 -928q-2 -20 -22 -20h-234q-18 0 -18 16l10 50q2 9 -5.5 12t-16.5 -4q-84 -74 -203 -74q-203 0 -286 93.5t-48 291.5zM255 1096.5 q-3 11.5 7 21.5l318 355q13 16 34 16h121q23 0 31 -16l190 -355q6 -12 0.5 -22.5t-18.5 -10.5h-227q-19 0 -29 19l-37 96q-6 14 -17.5 14t-21.5 -14l-74 -96q-13 -19 -32 -19h-228q-14 0 -17 11.5zM377 344q-6 -39 16.5 -61.5t69.5 -22.5q48 0 81.5 23t39.5 61l49 281 q6 36 -18 59t-72 23q-49 0 -80 -22.5t-37 -59.5z" />
<glyph unicode="&#xe3;" horiz-adv-x="1028" d="M41 385l39 219q30 175 147 269t299 94q137 0 211 -74q3 -3 7.5 -4t8.5 1.5t5 8.5l10 49q0 6 8 12.5t17 6.5h217q21 0 18 -19l-164 -928q-2 -20 -22 -20h-234q-18 0 -18 16l10 50q2 9 -5.5 12t-16.5 -4q-84 -74 -203 -74q-203 0 -286 93.5t-48 291.5zM246 1260 q130 200 295 200q42 0 88 -23t83 -46t58 -23t41.5 15.5t30 28t28.5 40.5q7 11 17 14t16 -4l125 -112q11 -11 -2 -31q-152 -213 -301 -213q-36 0 -78 24t-79.5 48t-63.5 24q-45 0 -94 -72q-15 -20 -33 -6l-127 103q-16 13 -4 33zM377 344q-6 -39 16.5 -61.5t69.5 -22.5 q48 0 81.5 23t39.5 61l49 281q6 36 -18 59t-72 23q-49 0 -80 -22.5t-37 -59.5z" />
<glyph unicode="&#xe4;" horiz-adv-x="1028" d="M41 385l39 219q30 175 147 269t299 94q137 0 211 -74q3 -3 7.5 -4t8.5 1.5t5 8.5l10 49q0 6 8 12.5t17 6.5h217q21 0 18 -19l-164 -928q-2 -20 -22 -20h-234q-18 0 -18 16l10 50q2 9 -5.5 12t-16.5 -4q-84 -74 -203 -74q-203 0 -286 93.5t-48 291.5zM252 1284 q12 68 71 115t128 47q71 0 113 -47t30 -115q-10 -66 -69 -112t-130 -46q-74 0 -114.5 44.5t-28.5 113.5zM377 344q-6 -39 16.5 -61.5t69.5 -22.5q48 0 81.5 23t39.5 61l49 281q6 36 -18 59t-72 23q-49 0 -80 -22.5t-37 -59.5zM674 1284q12 68 71 115t129 47t112 -46.5 t30 -115.5t-68.5 -113.5t-128.5 -44.5q-74 0 -115.5 44.5t-29.5 113.5z" />
<glyph unicode="&#xe5;" horiz-adv-x="1028" d="M41 385l39 219q30 175 147 269t299 94q137 0 211 -74q3 -3 7.5 -4t8.5 1.5t5 8.5l10 49q0 6 8 12.5t17 6.5h217q21 0 18 -19l-164 -928q-2 -20 -22 -20h-234q-18 0 -18 16l10 50q2 9 -5.5 12t-16.5 -4q-84 -74 -203 -74q-203 0 -286 93.5t-48 291.5zM377 344 q-6 -39 16.5 -61.5t69.5 -22.5q48 0 81.5 23t39.5 61l49 281q6 36 -18 59t-72 23q-49 0 -80 -22.5t-37 -59.5zM379 1315l10 59q19 103 102 166.5t201 63.5q120 0 180 -63t41 -167l-10 -59q-19 -106 -101 -168t-202 -62q-117 0 -178.5 63t-42.5 167zM594 1315q-3 -17 8 -28 t33 -11q20 0 34 11t17 28l10 59q3 19 -7 31t-30 12q-21 0 -36.5 -12.5t-18.5 -30.5z" />
<glyph unicode="&#xe6;" horiz-adv-x="1531" d="M0 258l6 47q11 85 72.5 144t148 84.5t191.5 25.5h160q22 0 26 25l6 37q6 39 -20 62.5t-78 23.5q-110 0 -188 -111q-7 -11 -19.5 -12.5t-21.5 6.5l-191 141q-17 12 8 43q73 99 185 156q126 63 278 63q163 0 260 -51q29 -15 58 -2q109 53 247 53q186 0 294 -110t79 -277 l-28 -164q-3 -20 -23 -20h-504q-29 0 -33 -25l-6 -39q-6 -43 19.5 -68.5t77.5 -25.5q101 0 176 107q7 11 19.5 12.5t21.5 -6.5l188 -141q4 -2 6 -5t2 -7v-6t-2.5 -7t-3.5 -6.5t-5 -6.5l-3 -5q-68 -90 -158 -144q-130 -76 -297 -76q-225 0 -317 115q-11 13 -25.5 12.5 t-25.5 -12.5q-45 -51 -110.5 -83t-129.5 -32h-64q-147 0 -220.5 73.5t-55.5 211.5zM311 293q-13 -92 66 -92h67q36 0 73 44t48 111q2 12 -4.5 18.5t-23.5 6.5h-125q-41 0 -68 -23.5t-33 -64.5zM950 608q-1 -9 5.5 -14.5t17.5 -5.5h198q29 0 33 24l4 29q6 42 -20.5 70 t-85.5 28t-98 -28t-48 -74z" />
<glyph unicode="&#xe7;" horiz-adv-x="937" d="M37 360l43 246q31 175 168 281t342 106q214 0 303 -123q45 -63 63 -161q5 -31 -18 -41l-242 -97q-13 -6 -21.5 0t-10.5 17q-17 62 -44 93.5t-79 31.5q-48 0 -78.5 -23.5t-36.5 -62.5l-51 -287q-6 -40 15.5 -63t70.5 -23q52 0 91.5 32t74.5 93q19 26 39 16l208 -96 q19 -10 3 -41q-52 -95 -115 -156q-82 -82 -203 -112q-33 -7 -51 -37q-12 -19 0 -25q40 -20 56.5 -61t8.5 -92l-4 -15q-19 -108 -109 -176.5t-220 -68.5h-179q-19 0 -16 20l31 178q7 23 28 23h134q33 0 36 24q3 13 -4 19t-24 6h-111q-23 0 -10 25l102 159q18 26 -10 37 q-107 43 -154.5 135.5t-25.5 218.5z" />
<glyph unicode="&#xe8;" horiz-adv-x="1003" d="M37 360l43 246q20 114 96 203t187 136.5t237 47.5q186 0 294 -110t79 -277l-29 -164q-2 -20 -22 -20h-504q-29 0 -33 -25l-6 -39q-6 -43 19 -68.5t77 -25.5q101 0 176 107q7 11 19.5 12.5t21.5 -6.5l189 -141q4 -2 6 -5t2 -6.5t-0.5 -6.5t-3 -7t-3.5 -6t-4 -6.5t-4 -5.5 q-65 -87 -145 -138q-128 -82 -309 -82q-200 0 -307 107t-76 280zM211.5 1454.5q6.5 11.5 21.5 11.5h336q26 0 35 -18l184 -313q6 -11 1 -20t-17 -9h-240q-25 0 -43 18l-276 310q-8 9 -1.5 20.5zM422 608q-1 -9 5 -14.5t17 -5.5h199q29 0 33 24l4 29q6 42 -21 70t-86 28 t-97.5 -27.5t-47.5 -74.5z" />
<glyph unicode="&#xe9;" horiz-adv-x="1003" d="M37 360l43 246q20 114 96 203t187 136.5t237 47.5q186 0 294 -110t79 -277l-29 -164q-2 -20 -22 -20h-504q-29 0 -33 -25l-6 -39q-6 -43 19 -68.5t77 -25.5q101 0 176 107q7 11 19.5 12.5t21.5 -6.5l189 -141q4 -2 6 -5t2 -6.5t-0.5 -6.5t-3 -7t-3.5 -6t-4 -6.5t-4 -5.5 q-65 -87 -145 -138q-128 -82 -309 -82q-200 0 -307 107t-76 280zM422 608q-1 -9 5 -14.5t17 -5.5h199q29 0 33 24l4 29q6 42 -21 70t-86 28t-97.5 -27.5t-47.5 -74.5zM431.5 1115q-2.5 9 6.5 20l295 313q18 18 43 18h336q15 0 17 -11.5t-9 -20.5l-387 -310q-21 -18 -47 -18 h-240q-12 0 -14.5 9z" />
<glyph unicode="&#xea;" horiz-adv-x="1003" d="M37 360l43 246q20 114 96 203t187 136.5t237 47.5q186 0 294 -110t79 -277l-29 -164q-2 -20 -22 -20h-504q-29 0 -33 -25l-6 -39q-6 -43 19 -68.5t77 -25.5q101 0 176 107q7 11 19.5 12.5t21.5 -6.5l189 -141q4 -2 6 -5t2 -6.5t-0.5 -6.5t-3 -7t-3.5 -6t-4 -6.5t-4 -5.5 q-65 -87 -145 -138q-128 -82 -309 -82q-200 0 -307 107t-76 280zM259 1096.5q-3 11.5 7 21.5l318 355q13 16 34 16h121q23 0 31 -16l191 -355q6 -12 0 -22.5t-19 -10.5h-227q-19 0 -29 19l-37 96q-5 14 -17 14t-22 -14l-73 -96q-13 -19 -33 -19h-228q-14 0 -17 11.5z M422 608q-1 -9 5 -14.5t17 -5.5h199q29 0 33 24l4 29q6 42 -21 70t-86 28t-97.5 -27.5t-47.5 -74.5z" />
<glyph unicode="&#xeb;" horiz-adv-x="1003" d="M37 360l43 246q20 114 96 203t187 136.5t237 47.5q186 0 294 -110t79 -277l-29 -164q-2 -20 -22 -20h-504q-29 0 -33 -25l-6 -39q-6 -43 19 -68.5t77 -25.5q101 0 176 107q7 11 19.5 12.5t21.5 -6.5l189 -141q4 -2 6 -5t2 -6.5t-0.5 -6.5t-3 -7t-3.5 -6t-4 -6.5t-4 -5.5 q-65 -87 -145 -138q-128 -82 -309 -82q-200 0 -307 107t-76 280zM254 1284q12 68 71 115t128 47q71 0 113 -47t30 -115q-10 -66 -69 -112t-130 -46q-74 0 -114.5 44.5t-28.5 113.5zM422 608q-1 -9 5 -14.5t17 -5.5h199q29 0 33 24l4 29q6 42 -21 70t-86 28t-97.5 -27.5 t-47.5 -74.5zM676 1284q12 68 71.5 115t129.5 47t111.5 -46t29.5 -116q-12 -69 -68.5 -113.5t-128.5 -44.5q-74 0 -115.5 44.5t-29.5 113.5z" />
<glyph unicode="&#xec;" horiz-adv-x="509" d="M-40 1434q7 12 22 12h335q25 0 35 -19l185 -313q6 -10 0.5 -19.5t-17.5 -9.5h-239q-24 0 -43 19l-277 309q-8 9 -1 21zM8 20l164 928q3 19 23 19h299q6 0 11.5 -5t4.5 -14l-164 -928q-2 -20 -22 -20h-299q-19 0 -17 20z" />
<glyph unicode="&#xed;" horiz-adv-x="509" d="M8 20l164 928q3 19 23 19h299q6 0 11.5 -5t4.5 -14l-164 -928q-2 -20 -22 -20h-299q-19 0 -17 20zM178 1094.5q-3 9.5 6 19.5l295 313q19 19 43 19h336q15 0 17 -12t-9 -21l-387 -309q-22 -19 -47 -19h-239q-12 0 -15 9.5z" />
<glyph unicode="&#xee;" horiz-adv-x="509" d="M5.5 1096.5q-3.5 11.5 6.5 21.5l318 355q13 16 35 16h120q23 0 31 -16l191 -355q6 -12 0 -22.5t-19 -10.5h-227q-19 0 -29 19l-37 96q-6 14 -17.5 14t-21.5 -14l-73 -96q-13 -19 -33 -19h-227q-14 0 -17.5 11.5zM8 20l164 928q3 19 23 19h299q6 0 11.5 -5t4.5 -14 l-164 -928q-2 -20 -22 -20h-299q-19 0 -17 20z" />
<glyph unicode="&#xef;" horiz-adv-x="509" d="M2 1284q12 68 71 115t128 47q71 0 113 -47t30 -115q-10 -66 -69 -112t-130 -46q-74 0 -114.5 44.5t-28.5 113.5zM8 20l164 928q3 19 23 19h299q6 0 11.5 -5t4.5 -14l-164 -928q-2 -20 -22 -20h-299q-19 0 -17 20zM424 1284q12 68 71.5 115t129.5 47t111.5 -46t29.5 -116 q-12 -69 -68.5 -113.5t-128.5 -44.5q-74 0 -115.5 44.5t-29.5 113.5z" />
<glyph unicode="&#xf0;" horiz-adv-x="1003" d="M37 360l43 246q24 136 121.5 234t240.5 135l-36 43l-203 -70q-8 -3 -18 1.5t-9 11.5l14 83q4 27 19 33l113 39l-125 146q-8 10 -0.5 20t20.5 10h379q17 0 31 -20l26 -39l172 59q10 3 19 -0.5t8 -11.5l-14 -92q-4 -21 -23 -27l-86 -31l215 -296q22 -31 30.5 -97t-1.5 -131 l-43 -246q-31 -174 -172 -280.5t-338 -106.5q-200 0 -307 107t-76 280zM375 330q-6 -38 18 -62t74 -24q44 0 77.5 24.5t39.5 61.5l53 307q6 37 -18 61.5t-68 24.5q-49 0 -83 -24.5t-40 -61.5z" />
<glyph unicode="&#xf1;" horiz-adv-x="1044" d="M8 20l164 928q3 19 23 19h217q10 0 15 -6t5 -13l-10 -49q-1 -8 6.5 -9.5t13.5 3.5q100 74 236 74q182 0 264 -93.5t51 -269.5l-102 -584q-3 -20 -25 -20h-299q-17 0 -14 20l102 584q6 38 -16.5 60t-71.5 22q-48 0 -80 -23t-38 -59l-103 -584q-2 -20 -24 -20h-297 q-19 0 -17 20zM276 1260q130 200 295 200q42 0 88 -23t83.5 -46t58.5 -23t41.5 15.5t30 28t28.5 40.5q7 11 17 14t16 -4l125 -112q11 -11 -2 -31q-152 -213 -301 -213q-36 0 -78 24t-79.5 48t-63.5 24q-46 0 -95 -72q-15 -20 -32 -6l-127 103q-17 14 -5 33z" />
<glyph unicode="&#xf2;" horiz-adv-x="1003" d="M37 360l43 246q31 173 175 280t345 107q198 0 301 -105.5t72 -281.5l-43 -246q-31 -174 -172 -280.5t-338 -106.5q-200 0 -307 107t-76 280zM216 1454.5q7 11.5 22 11.5h335q26 0 35 -18l185 -313q6 -11 0.5 -20t-17.5 -9h-239q-25 0 -43 18l-277 310q-8 9 -1 20.5z M373 330q-6 -38 19 -62t75 -24q44 0 76.5 24.5t38.5 61.5l55 307q6 37 -17.5 61.5t-68.5 24.5q-48 0 -82.5 -25t-40.5 -61z" />
<glyph unicode="&#xf3;" horiz-adv-x="1003" d="M37 360l43 246q31 173 175 280t345 107q198 0 301 -105.5t72 -281.5l-43 -246q-31 -174 -172 -280.5t-338 -106.5q-200 0 -307 107t-76 280zM373 330q-6 -38 19 -62t75 -24q44 0 76.5 24.5t38.5 61.5l55 307q6 37 -17.5 61.5t-68.5 24.5q-48 0 -82.5 -25t-40.5 -61z M434 1115q-3 9 6 20l295 313q18 18 43 18h336q15 0 17 -11.5t-9 -20.5l-387 -310q-21 -18 -47 -18h-239q-12 0 -15 9z" />
<glyph unicode="&#xf4;" horiz-adv-x="1003" d="M37 360l43 246q31 173 175 280t345 107q198 0 301 -105.5t72 -281.5l-43 -246q-31 -174 -172 -280.5t-338 -106.5q-200 0 -307 107t-76 280zM261.5 1096.5q-3.5 11.5 6.5 21.5l318 355q13 16 35 16h120q23 0 31 -16l191 -355q6 -12 0 -22.5t-19 -10.5h-227q-19 0 -29 19 l-37 96q-6 14 -17.5 14t-21.5 -14l-73 -96q-13 -19 -33 -19h-227q-14 0 -17.5 11.5zM373 330q-6 -38 19 -62t75 -24q44 0 76.5 24.5t38.5 61.5l55 307q6 37 -17.5 61.5t-68.5 24.5q-48 0 -82.5 -25t-40.5 -61z" />
<glyph unicode="&#xf5;" horiz-adv-x="1003" d="M37 360l43 246q31 173 175 280t345 107q198 0 301 -105.5t72 -281.5l-43 -246q-31 -174 -172 -280.5t-338 -106.5q-200 0 -307 107t-76 280zM254 1260q130 200 295 200q42 0 88 -23t83 -46t58 -23t41.5 15.5t31 29t28.5 39.5q7 12 16.5 14t15.5 -4l125 -112 q11 -11 -2 -31q-152 -213 -301 -213q-36 0 -78 24t-79.5 48t-63.5 24q-45 0 -94 -72q-15 -20 -33 -6l-127 103q-16 13 -4 33zM373 330q-6 -38 19 -62t75 -24q44 0 76.5 24.5t38.5 61.5l55 307q6 37 -17.5 61.5t-68.5 24.5q-48 0 -82.5 -25t-40.5 -61z" />
<glyph unicode="&#xf6;" horiz-adv-x="1003" d="M37 360l43 246q31 173 175 280t345 107q198 0 301 -105.5t72 -281.5l-43 -246q-31 -174 -172 -280.5t-338 -106.5q-200 0 -307 107t-76 280zM260 1284q12 68 71 115t128 47q71 0 113 -47t30 -115q-10 -66 -69 -112t-130 -46q-74 0 -114.5 44.5t-28.5 113.5zM373 330 q-6 -38 19 -62t75 -24q44 0 76.5 24.5t38.5 61.5l55 307q6 37 -17.5 61.5t-68.5 24.5q-48 0 -82.5 -25t-40.5 -61zM682 1284q12 68 71.5 115t129.5 47t111.5 -46t29.5 -116q-12 -69 -68.5 -113.5t-128.5 -44.5q-74 0 -115.5 44.5t-29.5 113.5z" />
<glyph unicode="&#xf7;" d="M47 453l37 206q3 21 20 21h949q21 0 18 -21l-37 -206q-3 -19 -24 -19h-949q-17 0 -14 19zM305 168q12 71 76.5 120.5t140.5 49.5q70 0 118 -51.5t36 -118.5q-12 -68 -77.5 -118t-137.5 -50q-76 0 -122 48.5t-34 119.5zM442 946q12 71 76.5 120.5t140.5 49.5 q70 0 118 -51.5t36 -118.5q-12 -68 -77.5 -118t-137.5 -50q-76 0 -122 48.5t-34 119.5z" />
<glyph unicode="&#xf8;" horiz-adv-x="1003" d="M37 360l43 246q31 173 175 280t345 107q198 0 301 -105.5t72 -281.5l-43 -246q-31 -174 -172 -280.5t-338 -106.5q-200 0 -307 107t-76 280zM399 481q-1 -12 5 -14.5t14 6.5l168 217q20 23 -2 29q-20 4 -33 4q-48 0 -82.5 -25t-40.5 -61zM422 252q16 -8 45 -8 q44 0 76.5 24.5t38.5 61.5l28 164q3 14 -4 16t-16 -10l-166 -215q-20 -27 -2 -33z" />
<glyph unicode="&#xf9;" horiz-adv-x="1044" d="M57 362l103 584q3 21 22 21h299q20 0 17 -21l-103 -584q-6 -37 16.5 -59t69.5 -22q50 0 82.5 22.5t38.5 58.5l103 584q3 21 22 21h301q17 0 14 -21l-161 -928q-5 -18 -23 -18h-219q-9 0 -16 6t-5 12l9 50q1 8 -6 9.5t-13 -3.5q-100 -74 -235 -74q-182 0 -264.5 93 t-51.5 269zM226 1454.5q7 11.5 22 11.5h336q25 0 34 -18l185 -313q6 -11 0.5 -20t-17.5 -9h-239q-25 0 -43 18l-277 310q-8 9 -1 20.5z" />
<glyph unicode="&#xfa;" horiz-adv-x="1044" d="M57 362l103 584q3 21 22 21h299q20 0 17 -21l-103 -584q-6 -37 16.5 -59t69.5 -22q50 0 82.5 22.5t38.5 58.5l103 584q3 21 22 21h301q17 0 14 -21l-161 -928q-5 -18 -23 -18h-219q-9 0 -16 6t-5 12l9 50q1 8 -6 9.5t-13 -3.5q-100 -74 -235 -74q-182 0 -264.5 93 t-51.5 269zM444.5 1115q-2.5 9 6.5 20l294 313q18 18 43 18h336q15 0 17.5 -11.5t-8.5 -20.5l-388 -310q-21 -18 -47 -18h-239q-12 0 -14.5 9z" />
<glyph unicode="&#xfb;" horiz-adv-x="1044" d="M57 362l103 584q3 21 22 21h299q20 0 17 -21l-103 -584q-6 -37 16.5 -59t69.5 -22q50 0 82.5 22.5t38.5 58.5l103 584q3 21 22 21h301q17 0 14 -21l-161 -928q-5 -18 -23 -18h-219q-9 0 -16 6t-5 12l9 50q1 8 -6 9.5t-13 -3.5q-100 -74 -235 -74q-182 0 -264.5 93 t-51.5 269zM272 1096.5q-3 11.5 7 21.5l317 355q13 16 35 16h121q22 0 30 -16l191 -355q6 -12 0 -22.5t-19 -10.5h-227q-19 0 -29 19l-36 96q-6 14 -17 14t-22 -14l-74 -96q-13 -19 -33 -19h-227q-14 0 -17 11.5z" />
<glyph unicode="&#xfc;" horiz-adv-x="1044" d="M57 362l103 584q3 21 22 21h299q20 0 17 -21l-103 -584q-6 -37 16.5 -59t69.5 -22q50 0 82.5 22.5t38.5 58.5l103 584q3 21 22 21h301q17 0 14 -21l-161 -928q-5 -18 -23 -18h-219q-9 0 -16 6t-5 12l9 50q1 8 -6 9.5t-13 -3.5q-100 -74 -235 -74q-182 0 -264.5 93 t-51.5 269zM268 1284q12 68 71 115t128 47q71 0 113 -47t30 -115q-10 -66 -68.5 -112t-129.5 -46q-74 0 -115 44.5t-29 113.5zM690 1284q12 68 71.5 115t129.5 47t111.5 -46t29.5 -116q-12 -69 -68 -113.5t-128 -44.5q-74 0 -116 44.5t-30 113.5z" />
<glyph unicode="&#xfd;" horiz-adv-x="1044" d="M-25 -254q-11 32 9 43l237 141q12 8 24 6.5t15 -12.5q38 -106 139 -106q107 0 123 92l19 106q3 11 -4 15t-17 -2q-56 -29 -121 -29q-186 0 -277.5 103t-60.5 280l99 563q3 21 22 21h299q20 0 17 -21l-103 -584q-6 -37 16.5 -59t69.5 -22q49 0 82 23t39 58l103 584 q3 21 22 21h301q17 0 14 -21l-182 -1040q-33 -183 -163.5 -285t-348.5 -102q-183 0 -293 104q-53 53 -80 123zM444.5 1115q-2.5 9 6.5 20l294 313q18 18 43 18h336q15 0 17.5 -11.5t-8.5 -20.5l-388 -310q-21 -18 -47 -18h-239q-12 0 -14.5 9z" />
<glyph unicode="&#xfe;" horiz-adv-x="1028" d="M-49 -305l278 1577q3 20 23 20h250q9 0 14 -4.5t4 -11.5l-63 -358q-1 -10 5.5 -12.5t14.5 3.5q81 58 182 58q203 0 286 -93.5t48 -291.5l-35 -199q-31 -176 -161.5 -279.5t-317.5 -103.5q-65 0 -112 29q-8 6 -14 2t-9 -15l-55 -321q-1 -11 -9.5 -16t-15.5 -5h-297 q-19 0 -16 21zM401 342q-6 -37 18 -59.5t73 -22.5t79.5 22.5t36.5 59.5l51 281q7 38 -17 61t-71 23t-78.5 -23t-39.5 -61z" />
<glyph unicode="&#xff;" horiz-adv-x="1044" d="M-25 -254q-11 32 9 43l237 141q12 8 24 6.5t15 -12.5q38 -106 139 -106q107 0 123 92l19 106q3 11 -4 15t-17 -2q-56 -29 -121 -29q-186 0 -277.5 103t-60.5 280l99 563q3 21 22 21h299q20 0 17 -21l-103 -584q-6 -37 16.5 -59t69.5 -22q49 0 82 23t39 58l103 584 q3 21 22 21h301q17 0 14 -21l-182 -1040q-33 -183 -163.5 -285t-348.5 -102q-193 0 -301 114q-50 53 -72 113zM268 1284q12 68 71 115t128 47q71 0 113 -47t30 -115q-10 -66 -68.5 -112t-129.5 -46q-74 0 -115 44.5t-29 113.5zM690 1284q12 68 71.5 115t129.5 47t111.5 -46 t29.5 -116q-12 -69 -68 -113.5t-128 -44.5q-74 0 -116 44.5t-30 113.5z" />
<glyph unicode="&#x152;" horiz-adv-x="1685" d="M51 358l101 576q31 173 173 279t341 106h143q81 0 164 -27h799q20 0 18 -20l-47 -262q-3 -19 -25 -19h-504q-22 0 -28 -22l-25 -142q-3 -22 21 -22h413q22 0 19 -19l-47 -264q-3 -18 -25 -18h-414q-21 0 -28 -23l-27 -157q-3 -23 21 -23h503q22 0 17 -18l-45 -263 q-3 -20 -25 -20h-796q-93 -27 -177 -27h-143q-200 0 -304 106t-73 279zM387 358q-6 -39 17.5 -61.5t76.5 -22.5h144q46 0 77 23.5t37 60.5l101 576q6 37 -17 61.5t-67 24.5h-144q-45 0 -82 -26.5t-43 -59.5z" />
<glyph unicode="&#x153;" horiz-adv-x="1554" d="M37 360l43 246q31 173 175 280t345 107q144 0 238 -55q13 -8 21.5 -8.5t29.5 8.5q116 55 262 55q186 0 294 -110t79 -277l-29 -164q-3 -20 -22 -20h-504q-29 0 -33 -25l-6 -39q-6 -43 19 -68.5t77 -25.5q101 0 176 107q7 11 19.5 12.5t21.5 -6.5l189 -141q4 -2 6 -5 t2 -6.5t-0.5 -6.5t-3 -7t-3.5 -6t-4 -6.5t-4 -5.5q-54 -75 -129 -125q-140 -95 -325 -95q-142 0 -244 54q-25 15 -59 0q-111 -54 -248 -54q-200 0 -307 107t-76 280zM373 330q-6 -38 19 -62t75 -24q44 0 76.5 24.5t38.5 61.5l55 307q6 37 -17.5 61.5t-68.5 24.5 q-48 0 -82.5 -25t-40.5 -61zM973 608q-1 -9 5 -14.5t17 -5.5h199q29 0 33 24l4 29q6 42 -21 70t-86 28t-97.5 -27.5t-47.5 -74.5z" />
<glyph unicode="&#x178;" horiz-adv-x="1003" d="M68 1262q-4 12 2 21t18 9h342q22 0 31 -20l110 -299q5 -13 17 -13t22 13l224 299q14 20 34 20h338q17 0 20 -9t-7 -21l-527 -682l-98 -560q-2 -20 -25 -20h-299q-9 0 -12 4t-2 16l98 560zM342 1579q10 64 62 107t114 43q60 0 95.5 -44.5t25.5 -105.5q-12 -63 -62 -104 t-112 -41t-97.5 41.5t-25.5 103.5zM739 1579q11 63 61 106.5t113 43.5q60 0 96.5 -44.5t26.5 -105.5q-12 -62 -63 -103.5t-113 -41.5t-96.5 42t-24.5 103z" />
<glyph unicode="&#x2c6;" horiz-adv-x="1107" d="M278 1096.5q-3 11.5 7 21.5l317 355q13 16 35 16h121q22 0 30 -16l191 -355q6 -12 0.5 -22.5t-18.5 -10.5h-228q-19 0 -28 19l-37 96q-6 14 -17 14t-22 -14l-74 -96q-13 -19 -33 -19h-227q-14 0 -17 11.5z" />
<glyph unicode="&#x2dc;" horiz-adv-x="1107" d="M268 1260q130 200 295 200q42 0 88 -23t83.5 -46t58.5 -23t41.5 15.5t30 28t28.5 40.5q7 11 17 14t16 -4l125 -112q11 -11 -2 -31q-152 -213 -301 -213q-36 0 -78.5 24t-80 48t-63.5 24q-45 0 -94 -72q-15 -20 -33 -6l-127 103q-16 13 -4 33z" />
<glyph unicode="&#x2000;" horiz-adv-x="886" />
<glyph unicode="&#x2001;" horiz-adv-x="1772" />
<glyph unicode="&#x2002;" horiz-adv-x="886" />
<glyph unicode="&#x2003;" horiz-adv-x="1772" />
<glyph unicode="&#x2004;" horiz-adv-x="590" />
<glyph unicode="&#x2005;" horiz-adv-x="443" />
<glyph unicode="&#x2006;" horiz-adv-x="295" />
<glyph unicode="&#x2007;" horiz-adv-x="295" />
<glyph unicode="&#x2008;" horiz-adv-x="221" />
<glyph unicode="&#x2009;" horiz-adv-x="354" />
<glyph unicode="&#x200a;" horiz-adv-x="98" />
<glyph unicode="&#x2010;" horiz-adv-x="647" d="M41 344l49 279q2 20 21 20h483q11 0 15 -4t3 -16l-49 -279q-5 -18 -24 -18h-484q-19 0 -14 18z" />
<glyph unicode="&#x2011;" horiz-adv-x="647" d="M41 344l49 279q2 20 21 20h483q11 0 15 -4t3 -16l-49 -279q-5 -18 -24 -18h-484q-19 0 -14 18z" />
<glyph unicode="&#x2012;" horiz-adv-x="647" d="M41 344l49 279q2 20 21 20h483q11 0 15 -4t3 -16l-49 -279q-5 -18 -24 -18h-484q-19 0 -14 18z" />
<glyph unicode="&#x2013;" horiz-adv-x="1202" d="M41 406l37 208q3 19 20 19h1053q19 0 16 -19l-37 -208q-3 -21 -22 -21h-1053q-17 0 -14 21z" />
<glyph unicode="&#x2014;" horiz-adv-x="1744" d="M41 406l37 208q3 19 20 19h1594q21 0 18 -19l-37 -208q-3 -21 -24 -21h-1594q-17 0 -14 21z" />
<glyph unicode="&#x2018;" horiz-adv-x="448" d="M119 829l31 175q29 165 124 253q70 67 191 117q28 13 35 -8l49 -137q9 -23 -14 -31q-38 -10 -60.5 -29.5t-25.5 -42.5q-3 -18 16 -18h18q20 0 17 -18l-47 -261q-3 -18 -21 -18h-295q-21 0 -18 18z" />
<glyph unicode="&#x2019;" horiz-adv-x="448" d="M88 864q-6 24 14 31q38 10 60.5 29.5t25.5 42.5q3 18 -16 18h-18q-20 0 -17 19l47 260q3 18 21 18h295q21 0 18 -18l-31 -174q-26 -152 -108 -240q-71 -74 -207 -131q-26 -12 -33 8z" />
<glyph unicode="&#x201a;" horiz-adv-x="448" d="M-59 -68q-9 23 14 31q38 10 60.5 29.5t25.5 42.5q3 18 -16 18h-19q-19 0 -16 19l47 260q3 18 20 18h295q10 0 15 -4t4 -14l-31 -174q-27 -148 -102 -232q-70 -78 -213 -139q-28 -13 -35 8z" />
<glyph unicode="&#x201c;" horiz-adv-x="856" d="M119 829l31 175q29 165 124 253q70 67 191 117q28 13 35 -8l49 -137q9 -23 -14 -31q-38 -10 -60.5 -29.5t-25.5 -42.5q-3 -18 16 -18h18q20 0 17 -18l-47 -261q-3 -18 -21 -18h-295q-21 0 -18 18zM528 829l31 175q26 150 113 241q65 70 202 129q28 13 35 -8l49 -137 q9 -23 -14 -31q-38 -10 -60.5 -29.5t-25.5 -42.5q-3 -18 16 -18h19q19 0 16 -18l-47 -261q-3 -18 -20 -18h-295q-10 0 -15 4t-4 14z" />
<glyph unicode="&#x201d;" horiz-adv-x="856" d="M88 864q-6 24 14 31q38 10 60.5 29.5t25.5 42.5q3 18 -16 18h-18q-20 0 -17 19l47 260q3 18 21 18h295q21 0 18 -18l-31 -174q-28 -166 -131 -261q-68 -60 -184 -110q-26 -12 -33 8zM496 864q-6 24 14 31q38 10 60.5 29.5t25.5 42.5q3 18 -16 18h-19q-19 0 -16 19l47 260 q3 18 20 18h295q11 0 15.5 -4t3.5 -14l-31 -174q-24 -145 -100 -230q-70 -81 -215 -141q-26 -12 -33 8z" />
<glyph unicode="&#x201e;" horiz-adv-x="856" d="M-59 -68q-9 23 14 31q38 10 60.5 29.5t25.5 42.5q3 18 -16 18h-19q-19 0 -16 19l47 260q3 18 20 18h295q10 0 15 -4t4 -14l-31 -174q-25 -145 -98.5 -227.5t-216.5 -143.5q-28 -13 -35 8zM348 -68q-9 23 14 31q38 10 61 29.5t26 42.5q3 18 -17 18h-18q-20 0 -17 19 l47 260q3 18 21 18h295q21 0 18 -18l-30 -174q-26 -152 -111 -240q-68 -73 -205 -131q-28 -13 -35 8z" />
<glyph unicode="&#x2022;" horiz-adv-x="1024" d="M154 625l6 39q23 147 146 238t296 91h8q169 0 257 -91t65 -238l-6 -39q-23 -149 -145.5 -240.5t-295.5 -91.5h-8q-169 0 -257.5 92t-65.5 240z" />
<glyph unicode="&#x2026;" horiz-adv-x="2048" d="M233 160q12 70 76 120t140 50q71 0 118 -52t37 -118q-12 -67 -78.5 -119.5t-136.5 -52.5q-75 0 -121.5 51.5t-34.5 120.5zM840 160q12 70 76 120t139 50q71 0 118 -52t37 -118q-12 -67 -78.5 -119.5t-136.5 -52.5q-75 0 -121 51.5t-34 120.5zM1444 160q12 70 76 120 t139 50q71 0 118.5 -52t37.5 -118q-12 -67 -79 -119.5t-137 -52.5q-75 0 -121 51.5t-34 120.5z" />
<glyph unicode="&#x202f;" horiz-adv-x="354" />
<glyph unicode="&#x2039;" horiz-adv-x="784" d="M88 508l25 147q3 22 24 35l598 344q12 8 21 2.5t6 -18.5l-47 -258q-3 -20 -23 -33l-239 -129q-12 -6 -13.5 -16.5t9.5 -16.5l192 -129q15 -12 12 -33l-45 -258q-3 -14 -12.5 -18.5t-20.5 2.5l-475 344q-15 9 -12 35z" />
<glyph unicode="&#x203a;" horiz-adv-x="784" d="M66 145l45 258q3 21 24 33l238 129q11 6 12.5 15.5t-8.5 17.5l-191 129q-17 11 -14 33l47 258q3 14 11.5 18.5t19.5 -2.5l475 -344q15 -9 12 -35l-24 -147q-3 -22 -25 -35l-598 -344q-12 -7 -19.5 -2t-4.5 18z" />
<glyph unicode="&#x205f;" horiz-adv-x="443" />
<glyph unicode="&#x20ac;" d="M-12 399l32 191q3 18 23 18h96q21 0 27 21l6 37q3 20 -18 20h-97q-19 0 -16 19l33 186q2 20 22 20h99q21 0 24 23q31 175 169 280t343 105h60q113 0 187.5 -33t125.5 -106q35 -48 65 -136q10 -29 -10 -38l-274 -117q-25 -11 -37 16q-42 115 -129 115h-41q-51 0 -83 -23.5 t-40 -62.5q-3 -23 20 -23h201q14 0 12 -20l-32 -186q-3 -19 -19 -19h-200q-26 0 -29 -18l-6 -39q-4 -21 20 -21h201q16 0 12 -18l-33 -191q-3 -18 -20 -18h-205q-21 0 -24 -23q-8 -39 17 -62.5t77 -23.5h41q85 0 170 115q20 28 41 16l233 -116q17 -10 -2 -39 q-73 -103 -139 -158q-137 -117 -338 -117h-59q-205 0 -306.5 105t-70.5 280q4 23 -19 23h-96q-17 0 -14 18z" />
<glyph unicode="&#x2122;" horiz-adv-x="1017" d="M223 1079l4 23q3 20 23 20h244q18 0 16 -20l-4 -23q-3 -18 -25 -18h-61q-24 0 -31 -23l-49 -280q-3 -21 -23 -21h-28q-20 0 -17 21l50 280q7 23 -21 23h-63q-18 0 -15 18zM543 758l61 344q2 20 23 20h24q10 0 17 -10l77 -166q8 -17 22.5 -17t27.5 17l137 166q7 10 22 10 h23q19 0 16 -20l-61 -344q-3 -21 -25 -21h-24q-20 0 -17 21l27 147q4 22 -15 25.5t-34 -15.5l-70 -84q-12 -13 -23.5 -13t-19.5 13l-47 84q-11 20 -28.5 16t-22.5 -26l-27 -147q-3 -21 -22 -21h-27q-17 0 -14 21z" />
<glyph unicode="&#x25fc;" horiz-adv-x="962" d="M0 0v963h963v-963h-963z" />
</font>
</defs>
</svg>
